<?xml version="1.0" encoding="UTF-8"?>
<svg width="1475px" height="1259px" viewBox="0 0 1475 1259" version="1.1" xmlns="http://www.w3.org/2000/svg" xmlns:xlink="http://www.w3.org/1999/xlink">
    <title>Graphic / IR - Blobs</title>
    <g id="Graphic-/-IR---Blobs" stroke="none" stroke-width="1" fill="none" fill-rule="evenodd">
        <path d="M857.246642,514.380286 C900.419552,565.03697 1016.67991,548.15276 1050.52413,483.267335 C1063.84438,457.729735 1064.77182,424.038368 1051.52265,396.865634 C1030.38987,353.527306 978.694442,338.056805 938.330594,344.345093 C889.547923,351.944893 846.154235,393.063301 839.941518,443.694031 C839.08684,450.654702 834.537482,487.733131 857.246642,514.380286" id="Fill-1" fill="#F3F9EB"></path>
        <path d="M204.23417,774.246356 C207.053786,788.500722 214.193354,815.935796 231.77345,838.0808 C262.263722,876.482831 316.727354,884.744213 339.808682,887.754099 C363.880298,890.892567 376.759562,888.205207 407.358026,895.97262 C417.17921,898.466036 434.444666,902.847462 452.438762,912.01856 C470.669114,921.307525 512.666378,942.709968 527.864042,989.214797 C541.242314,1030.15203 530.069834,1078.96062 501.14945,1110.30994 C453.955658,1161.46836 379.442282,1144.51485 355.994426,1139.1787 C344.452106,1136.55242 274.165946,1119.86785 237.789146,1057.70819 C210.999482,1011.93199 227.852042,983.63006 192.22265,940.851961 C185.349146,932.599151 159.922922,902.070613 119.382938,892.880228 C116.66489,892.264106 114.347594,891.84943 112.054586,891.578337 C83.1386182,888.155917 61.5498982,890.44896 54.0691942,891.261168 C28.7191462,894.014962 -5.7676058,885.891806 -27.7162298,869.400116 C-68.5852058,838.68942 -68.1954938,777.303389 -68.1347738,767.774405 C-67.6368698,689.477721 -5.2432058,641.538133 2.9330182,635.469071 C17.3313862,624.781779 85.4426662,577.705832 145.471562,608.818346 C168.600362,620.805386 200.498234,649.566996 202.55057,683.759045 C203.651258,702.100169 196.442138,726.666797 202.950218,767.031845 C203.27921,769.073081 203.645738,771.269687 204.23417,774.246356 Z" id="Fill-1" fill="#E8F4F2" transform="translate(232.668237, 872.261253) rotate(30.000000) translate(-232.668237, -872.261253) "></path>
        <path d="M1041.47181,185.369164 C1065.4426,223.635724 1096.12036,242.910982 1132.30566,265.645004 C1180.70673,296.055855 1222.69255,307.671796 1235.17123,310.900393 C1248.52131,314.352902 1271.50427,316.872233 1317.24609,322.916626 C1359.20938,328.461906 1360.70176,327.847709 1369.99786,330.753571 C1382.39767,334.630138 1425.06959,347.968582 1448.04504,387.921367 C1464.66158,416.812364 1464.17956,445.857222 1457.05568,503.280204 C1453.57637,531.325586 1450.29238,556.102342 1434.96414,584.484218 C1429.56301,594.483986 1402.30197,642.611462 1346.30627,662.898706 C1327.74411,669.622342 1298.26077,680.303855 1267.26125,666.842822 C1238.31626,654.274938 1224.23752,627.689367 1218.36188,616.590051 C1207.16525,595.447186 1204.71133,576.687302 1201.52248,550.419462 C1196.15516,506.208582 1203.88876,499.956538 1198.90705,467.735622 C1192.42795,425.817658 1173.16343,396.342487 1166.07961,386.348975 C1140.45743,350.191447 1108.11201,333.595636 1087.11597,322.821556 C1060.92539,309.384291 1039.27956,304.045411 1012.18252,297.318022 C973.292897,287.661004 957.980937,288.831855 921.408765,282.956335 C862.897797,273.554502 828.510365,268.029236 795.475093,246.632436 C786.161465,240.600553 707.913969,189.734836 716.451357,117.190866 C722.638741,64.6151565 772.662401,28.9880147 811.473149,17.3745747 C873.463425,-1.17515626 925.959785,35.8167274 950.804473,53.3219492 C982.172081,75.4255128 1000.41748,106.576902 1008.72951,119.682676 C1028.95181,151.568349 1025.12695,159.2752 1041.47181,185.369164" id="Fill-1" fill="#FCF2E9" transform="translate(1088.774952, 342.805335) scale(-1, 1) rotate(-75.000000) translate(-1088.774952, -342.805335) "></path>
    </g>
</svg>