<?xml version="1.0" encoding="UTF-8"?>
<svg width="109px" height="102px" viewBox="0 0 109 102" version="1.1" xmlns="http://www.w3.org/2000/svg" xmlns:xlink="http://www.w3.org/1999/xlink">
    <title>IRA-Blob</title>
    <g id="Pages" stroke="none" stroke-width="1" fill="none" fill-rule="evenodd">
        <g id="0.0-Homepage" transform="translate(-743.000000, -2216.000000)" fill="#A3D3CB">
            <path d="M792.030675,2247.29508 C792.089877,2247.67377 792.155835,2248.08128 792.261724,2248.63352 C792.769119,2251.27799 794.053896,2256.36776 797.217464,2260.4761 C802.70424,2267.60046 812.505063,2269.13312 816.658587,2269.69151 C820.990315,2270.27376 823.30796,2269.7752 828.814205,2271.21622 C830.581544,2271.6788 833.688492,2272.49164 836.92656,2274.19306 C840.207143,2275.91636 847.764621,2279.88695 850.499467,2288.51454 C852.906909,2296.10923 850.896403,2305.16422 845.692131,2310.98015 C837.199528,2320.47108 823.79072,2317.32586 819.571239,2316.3359 C817.494179,2315.84867 804.846065,2312.75334 798.299999,2301.22146 C793.479153,2292.72904 796.5118,2287.47846 790.100231,2279.54225 C788.863332,2278.01118 784.28784,2272.34752 776.992601,2270.64251 C776.503484,2270.52821 776.086483,2270.45128 775.673852,2270.40099 C770.470375,2269.76606 766.585448,2270.19146 765.239283,2270.34215 C760.677499,2270.85303 754.471549,2269.34602 750.521857,2266.28648 C743.167416,2260.58902 743.237545,2249.20066 743.248472,2247.43284 C743.338071,2232.90721 754.565916,2224.01344 756.037241,2222.8875 C758.628252,2220.90479 770.884992,2212.17125 781.687293,2217.94325 C785.84936,2220.16709 791.589436,2225.50296 791.958757,2231.84628 C792.156828,2235.24893 790.859535,2239.80654 792.030675,2247.29508" id="IRA-Blob"></path>
        </g>
    </g>
</svg>