<?xml version="1.0" encoding="UTF-8"?>
<svg width="119px" height="106px" viewBox="0 0 119 106" version="1.1" xmlns="http://www.w3.org/2000/svg" xmlns:xlink="http://www.w3.org/1999/xlink">
    <title>Onc-Blob</title>
    <g id="Pages" stroke="none" stroke-width="1" fill="none" fill-rule="evenodd">
        <g id="0.0-Homepage" transform="translate(-743.000000, -2011.000000)" fill="#F3CDA8">
            <path d="M794.924592,2038.50302 C798.728264,2044.58414 803.596194,2047.64726 809.338058,2051.26003 C817.018312,2056.09276 823.680599,2057.93871 825.66071,2058.45178 C827.779092,2059.00043 831.426016,2059.40079 838.684303,2060.36134 C845.343014,2061.24256 845.579824,2061.14496 847.054924,2061.60674 C849.022519,2062.22279 855.793675,2064.34246 859.439407,2070.69155 C862.076111,2075.28275 861.999624,2079.89841 860.869211,2089.02377 C860.317116,2093.48059 859.796014,2097.41798 857.363738,2101.92828 C856.50669,2103.51739 852.180922,2111.16555 843.295555,2114.3895 C840.350123,2115.45798 835.671722,2117.15543 830.752735,2115.01627 C826.15976,2113.01905 823.925754,2108.79421 822.993411,2107.03037 C821.216735,2103.67046 820.827348,2100.68923 820.321344,2096.51489 C819.46966,2089.48913 820.696824,2088.49559 819.90633,2083.37521 C818.87823,2076.71383 815.821346,2072.02979 814.69729,2070.44167 C810.631576,2064.69571 805.499023,2062.05839 802.167383,2060.34623 C798.011475,2058.21085 794.576727,2057.36242 790.276984,2056.29334 C784.106,2054.7587 781.676307,2054.94476 775.873055,2054.01106 C766.588567,2052.51697 761.131988,2051.63892 755.88997,2048.23866 C754.412088,2047.2801 741.995819,2039.19679 743.350527,2027.66848 C744.332338,2019.31343 752.270064,2013.65175 758.428532,2011.8062 C768.265115,2008.85838 776.595208,2014.73693 780.53755,2017.51877 C785.514944,2021.03135 788.410114,2025.98177 789.729062,2028.06447 C792.937926,2033.13157 792.330999,2034.3563 794.924592,2038.50302" id="Onc-Blob"></path>
        </g>
    </g>
</svg>