<?xml version="1.0" encoding="UTF-8"?>
<svg width="148px" height="163px" viewBox="0 0 148 163" version="1.1" xmlns="http://www.w3.org/2000/svg" xmlns:xlink="http://www.w3.org/1999/xlink">
    <title>SAM-Blob</title>
    <g id="Pages" stroke="none" stroke-width="1" fill="none" fill-rule="evenodd">
        <g id="0.0-Homepage" transform="translate(-80.000000, -2011.000000)" fill="#A3C0C0">
            <path d="M119.430259,2042.20599 C120.250171,2033.86404 121.034388,2025.88604 116.910421,2019.42729 C113.927811,2014.75653 108.635714,2011.44635 102.965714,2011.0415 C92.5015386,2010.29416 85.8227658,2019.86938 84.7726512,2021.37451 C79.6277087,2028.75064 79.9212891,2036.81725 80.0553308,2040.51174 C80.1853658,2044.08937 80.4769429,2049.92975 84.119198,2055.60484 C87.5562017,2060.95965 92.2797142,2063.48012 95.1084309,2064.98928 C100.185806,2067.69833 101.706159,2067.05372 108.323739,2070.52001 C111.18542,2072.0189 114.276757,2073.60015 116.674573,2075.95883 C118.707417,2077.95833 119.722382,2080.21153 121.669265,2084.63611 C122.777112,2087.15382 122.638517,2087.389 124.756777,2093.02905 C126.322843,2097.19883 127.105967,2099.28382 127.815513,2100.55763 C127.993811,2100.87755 130.691946,2105.8873 135.264297,2108.68789 C140.330199,2111.79041 145.083033,2111.35272 149.803814,2111.43949 C153.882433,2111.51452 175.194151,2112.38879 183.80214,2125.07773 C186.779104,2129.46635 188.478119,2135.6239 189.418596,2139.03277 C190.772126,2143.9376 189.835655,2143.47734 191.690931,2150.63977 C193.841061,2158.9399 195.707082,2165.7171 200.788646,2169.8667 C205.001125,2173.30658 212.176362,2175.51171 218.040503,2172.77515 C230.042334,2167.17472 227.985449,2144.25311 227.69278,2141.35035 C227.050982,2134.98424 226.394797,2128.47651 221.737395,2123.7221 C215.998371,2117.86357 205.651117,2116.16565 194.046495,2114.26117 C193.619783,2114.19109 191.974494,2113.92419 189.803966,2113.27426 C189.269803,2113.1143 188.711235,2112.92774 188.09712,2112.69881 C181.856897,2110.37242 177.914323,2106.33233 174.344552,2102.59675 C171.125366,2099.22805 167.879955,2095.8322 165.283625,2090.2769 C162.523751,2084.37195 163.138594,2081.6796 159.8655,2078.28412 C156.929332,2075.23846 153.441334,2074.2732 151.067375,2073.62308 C145.165534,2072.00716 143.643542,2073.97951 136.193301,2072.9427 C132.266572,2072.39623 128.675675,2071.89636 125.034877,2069.17374 C124.08584,2068.46401 120.11012,2065.36497 118.303107,2059.82452 C116.488626,2054.26242 118.542961,2051.23071 119.430259,2042.20599" id="SAM-Blob"></path>
        </g>
    </g>
</svg>