<?xml version="1.0" encoding="UTF-8"?>
<svg width="164px" height="164px" viewBox="0 0 164 164" version="1.1" xmlns="http://www.w3.org/2000/svg" xmlns:xlink="http://www.w3.org/1999/xlink">
    <title>Group 13 Copy 4</title>
    <defs>
        <linearGradient x1="-4.82251487%" y1="50%" x2="100%" y2="50%" id="linearGradient-1">
            <stop stop-color="#662E9B" offset="0%"></stop>
            <stop stop-color="#B4449B" offset="25.6153171%"></stop>
            <stop stop-color="#DD5A27" offset="69.5886145%"></stop>
            <stop stop-color="#E18026" offset="100%"></stop>
        </linearGradient>
        <linearGradient x1="18.6351586%" y1="50%" x2="111.44359%" y2="50%" id="linearGradient-2">
            <stop stop-color="#E18026" offset="0%"></stop>
            <stop stop-color="#E07B26" offset="43.2144525%"></stop>
            <stop stop-color="#DF6B27" offset="69.4781695%"></stop>
            <stop stop-color="#DD5827" offset="100%"></stop>
        </linearGradient>
        <linearGradient x1="-4.82251487%" y1="50%" x2="100%" y2="50%" id="linearGradient-3">
            <stop stop-color="#662E9B" offset="0%"></stop>
            <stop stop-color="#B4449B" offset="25.6153171%"></stop>
            <stop stop-color="#DD5A27" offset="69.5886145%"></stop>
            <stop stop-color="#E18026" offset="100%"></stop>
        </linearGradient>
        <linearGradient x1="77.7808129%" y1="50%" x2="0%" y2="50%" id="linearGradient-4">
            <stop stop-color="#B4449B" offset="0%"></stop>
            <stop stop-color="#B0439B" offset="39.1581075%"></stop>
            <stop stop-color="#662E9B" offset="100%"></stop>
        </linearGradient>
        <linearGradient x1="100%" y1="50%" x2="0%" y2="50%" id="linearGradient-5">
            <stop stop-color="#4F2986" offset="0%"></stop>
            <stop stop-color="#512888" offset="49.1613855%"></stop>
            <stop stop-color="#171956" offset="100%"></stop>
        </linearGradient>
        <linearGradient x1="100%" y1="50%" x2="0%" y2="50%" id="linearGradient-6">
            <stop stop-color="#4F2986" offset="0%"></stop>
            <stop stop-color="#512888" offset="24.2324082%"></stop>
            <stop stop-color="#171956" offset="100%"></stop>
        </linearGradient>
        <path d="M29.5543938,30.1210475 C30.483065,31.7084384 31.6849467,33.1437439 32.7915034,34.6265761 C34.0163337,36.2560621 35.2126479,37.9249273 35.6826188,39.9590689 C36.0409699,41.4812803 36.3098351,43.042871 35.0619205,44.1875849 C36.1728225,46.2271581 37.2753055,48.2069835 38.3210281,50.2153249 C39.0212997,51.5789331 39.9556741,52.8087876 41.0816489,53.8490786 C42.4466149,55.0779825 43.5515422,56.5680116 44.3309796,58.2310378 C45.3412609,60.4186227 46.6314064,62.3957323 48.422483,64.0401552 C50.5720466,66.0160427 51.9012997,68.4913676 52.4608923,71.3321048 C53.0908244,74.5313288 53.597323,77.7549952 54.1269059,80.9732299 C54.2777692,81.8870999 54.3238021,82.8172648 54.4135597,83.6890398 C55.7551697,82.4384093 57.0952861,81.2325897 58.3854316,79.9751697 C60.3175946,78.0917556 60.8065761,75.8389913 59.7364113,73.3798254 C59.2800194,72.3677789 58.7095635,71.4111348 58.0363143,70.528225 C56.2411639,68.1180795 54.5587197,65.6560621 53.9097769,62.6591659 C53.5431426,60.9631426 53.3366052,59.2318138 52.9388749,57.5439379 C51.776644,52.5057032 49.7554025,47.7049661 46.9640931,43.3524733 C44.8048885,40.0065955 42.2684578,36.9677401 39.06516,34.5518914 C37.2537148,33.185839 35.3715228,31.9121242 33.5629292,30.543356 C30.9474685,28.5580989 30.1490204,25.8709408 30.6434336,22.7191077 C30.7181183,22.2465567 30.86613,21.7848691 30.9800582,21.3191077 L30.7683608,21.1371484 C30.650902,21.3601164 30.51742,21.574258 30.369001,21.7779437 C28.3132687,24.2358875 27.9247721,27.357711 29.5543938,30.1210475 Z" id="path-7"></path>
    </defs>
    <g id="Pages" stroke="none" stroke-width="1" fill="none" fill-rule="evenodd">
        <g id="3.2-Oncology" transform="translate(-345.000000, -2767.000000)">
            <g id="Group-13-Copy-4" transform="translate(347.000000, 2769.000000)">
                <rect id="Rectangle" stroke="#F3CDA8" stroke-width="4" fill="#FFFFFF" x="0" y="0" width="160" height="160"></rect>
                <g id="Group-41" transform="translate(36.000000, 7.000000)">
                    <path d="M10.6142813,137.703769 C13.1141843,137.703769 14.732807,136.090578 14.732807,133.630054 C14.732807,131.169531 13.1141843,129.556339 10.6142813,129.556339 L7.89032396,129.556339 L7.89032396,137.703769 L10.6142813,137.703769 Z M5.80729777,127.682431 L10.7079767,127.682431 C14.3458041,127.682431 16.8294122,130.060122 16.8294122,133.627339 C16.8294122,137.194555 14.3458041,139.572246 10.7079767,139.572246 L5.80729777,139.572246 L5.80729777,127.682431 Z" id="Fill-1" fill="#0A1D59"></path>
                    <path d="M24.3318371,129.550894 L21.8957556,129.550894 L21.8957556,134.296772 L24.3318371,134.296772 C26.1595771,134.296772 27.104679,133.414134 27.104679,131.919081 C27.104679,130.424163 26.1595771,129.550894 24.3318371,129.550894 L24.3318371,129.550894 Z M27.1522056,139.572233 L24.86142,136.090565 C24.7174821,136.104144 24.5728652,136.109575 24.4282483,136.106859 L21.8957556,136.106859 L21.8957556,139.572233 L19.8127294,139.572233 L19.8127294,127.682417 L24.4296062,127.682417 C27.3776178,127.682417 29.2053579,129.279313 29.2053579,131.912427 C29.2053579,133.712873 28.3403725,135.035608 26.8168031,135.66554 L29.3968225,139.572233 L27.1522056,139.572233 Z" id="Fill-3" fill="#0A1D59"></path>
                    <path d="M40.0848652,134.663461 L40.0848652,132.778689 C40.0848652,130.518999 38.9469408,129.449106 37.1680854,129.449106 C35.3892299,129.449106 34.2513055,130.518999 34.2513055,132.778689 L34.2513055,134.663461 L40.0848652,134.663461 Z M42.1678914,132.982374 L42.1678914,139.572151 L40.0848652,139.572151 L40.0848652,136.515643 L34.2458739,136.515643 L34.2458739,139.572151 L32.1954374,139.572151 L32.1954374,132.982374 C32.2008691,129.415158 34.1997051,127.507302 37.187096,127.507302 C40.1744869,127.507302 42.1678914,129.415158 42.1678914,132.982374 L42.1678914,132.982374 Z" id="Fill-5" fill="#0A1D59"></path>
                    <path d="M53.5145858,133.491602 L55.4849059,133.491602 L55.4849059,139.572165 L53.7712299,139.572165 L53.7712299,138.87556 C52.970066,139.454163 51.9284171,139.741903 50.7580388,139.741903 C47.7134801,139.741903 45.054838,137.601981 45.054838,133.712941 C45.054838,130.077694 47.6185626,127.512747 51.1273889,127.512747 C53.0025199,127.512747 54.5737517,128.175404 55.6315597,129.448984 L54.3171077,130.806888 C53.4358274,129.872786 52.4254103,129.448984 51.2238002,129.448984 C48.8366033,129.448984 47.1500854,131.164017 47.1500854,133.695288 C47.1500854,136.430109 48.9601726,137.857131 50.9522192,137.857131 C51.8922968,137.869759 52.8044016,137.53748 53.5159437,136.923028 L53.5145858,133.491602 Z" id="Fill-7" fill="#0A1D59"></path>
                    <path d="M68.1771756,133.627393 C68.1771756,131.197965 66.4947313,129.448984 64.2392512,129.448984 C61.9839069,129.448984 60.3013269,131.197965 60.3013269,133.627393 C60.3013269,136.056685 61.9839069,137.805666 64.2392512,137.805666 C66.4947313,137.805666 68.1771756,136.062116 68.1771756,133.627393 M58.1938584,133.627393 C58.1938584,130.111641 60.7575829,127.516821 64.2353133,127.516821 C67.7127721,127.516821 70.2764966,130.09684 70.2764966,133.627393 C70.2764966,137.157946 67.7127721,139.737965 64.2353133,139.737965 C60.7575829,139.737965 58.1938584,137.14844 58.1938584,133.627393" id="Fill-9" fill="#0A1D59"></path>
                    <path d="M83.1128128,132.557391 L83.1128128,139.572192 L81.0297866,139.572192 L81.0297866,132.646877 C81.0297866,130.489302 79.9719787,129.45322 78.3370611,129.45322 C76.5717847,129.45322 75.3401649,130.523249 75.3401649,132.866857 L75.3401649,139.576266 L73.2571387,139.576266 L73.2571387,127.682512 L75.2763434,127.682512 L75.2763434,129.176208 C76.0775073,128.038283 77.295548,127.511409 78.8340543,127.511409 C81.4941901,127.507342 83.1128128,129.295567 83.1128128,132.557391" id="Fill-11" fill="#0A1D59"></path>
                    <path d="M70.0729195,40.3149758 C68.6715616,40.6543162 78.5583317,60.7784675 71.0153055,76.0440349 L71.0153055,76.0440349 C69.237808,79.6438409 64.9210281,85.3904947 57.7757323,88.986227 L57.7757323,88.986227 C55.4674297,90.1529389 53.0136954,91.0059748 50.4795732,91.5227934 L50.4795732,91.5227934 C47.6919302,92.0754607 40.04,93.5935984 32.9164306,89.3501455 L32.9164306,89.3501455 C26.223453,85.3646945 24.225839,78.8114452 23.7534239,77.0543162 L23.7534239,77.0543162 C22.4396508,81.7507662 21.7023084,86.5897963 21.5575558,91.4644035 L21.5575558,91.4644035 C21.3905335,97.1771096 21.3472163,100.034142 22.4171096,102.376392 L22.4171096,102.376392 C25.5090592,109.132105 34.9344132,111.175752 40.1744326,112.312182 L40.1744326,112.312182 C43.3316974,112.991271 51.0675461,114.574452 60.2104559,111.778661 L60.2104559,111.778661 C72.7167604,107.954801 79.0335984,98.6545102 80.8818429,95.8069835 L80.8818429,95.8069835 C81.4330165,94.9570708 81.8405238,94.2616877 82.1133269,93.786421 L82.1133269,93.786421 C85.8175558,87.3517168 87.1860524,80.6412221 87.1988167,74.7200776 L87.1988167,74.7200776 L87.1988167,74.5526479 C87.188904,69.920291 86.3505335,65.779903 85.1563919,62.6455868 L85.1563919,62.6455868 C83.2879146,57.7449079 79.7071193,52.2277401 77.6120078,49.4739088 L77.6120078,49.4739088 C76.1018817,47.4886518 75.2248109,46.7499515 72.1897575,42.7752279 L72.1897575,42.7752279 C70.7302813,40.8535209 70.3849661,40.3091368 70.1201746,40.3091368 L70.1201746,40.3091368 C70.1042871,40.3091368 70.0885354,40.3111736 70.0729195,40.3149758" id="Fill-14" fill="url(#linearGradient-1)"></path>
                    <path d="M52.2380601,0.135790495 C44.1951891,14.3639185 44.7573618,23.328807 46.8785451,28.9437439 L46.8785451,28.9437439 C50.2595926,37.8950533 58.0132299,39.4308438 64.0736954,53.2840543 L64.0736954,53.2840543 C65.9678371,57.6186227 68.1297575,62.7229874 67.6462076,69.3631426 L67.6462076,69.3631426 C66.896644,79.6723569 60.2795732,86.685936 57.597711,89.2386615 L57.597711,89.2386615 C61.0333463,87.6268283 68.0605044,83.6917556 72.6704559,75.5986421 L72.6704559,75.5986421 C78.1550339,65.9793792 78.8381959,52.9365664 73.6712318,44.3518914 L73.6712318,44.3518914 C71.9902813,41.5518914 70.2031426,40.0921435 68.3170126,35.6436469 L68.3170126,35.6436469 C66.1309214,30.4836081 65.6758875,25.7105723 65.636644,22.4721048 L65.636644,22.4721048 C64.419418,23.3174006 63.3292919,24.3325703 62.3992629,25.4865179 L62.3992629,25.4865179 C60.9562173,27.2873715 59.9270611,29.3838409 59.3847139,31.6269641 L59.3847139,31.6269641 C55.8635306,26.1345102 53.5066149,19.9779049 52.4593986,13.5384481 L52.4593986,13.5384481 C51.7498933,9.10393792 51.6753443,4.59121242 52.2380601,0.135790495 Z" id="Fill-17" fill="url(#linearGradient-2)"></path>
                    <path d="M34.4116198,111.517944 C36.8367022,112.646227 39.7331135,113.28322 40.940291,113.548012 C42.0009505,113.781571 46.0678758,114.630262 51.5496023,114.471387 C56.3457226,114.32935 61.0922793,113.45934 65.6271387,111.891368 C61.8778274,111.674239 45.9862658,110.351503 34.0042483,98.416741 C28.6409311,93.1057032 24.8920272,86.3839379 23.1912512,79.0300679 C21.5453346,84.5974782 21.7980407,89.1057226 22.1699709,91.7617847 C22.4130359,93.4905335 24.2748594,106.798002 34.4116198,111.517944 Z" id="Fill-20" fill="url(#linearGradient-3)"></path>
                    <path d="M20.9792241,64.3456838 C16.3866537,66.3037827 12.5724345,69.2952473 9.80774006,73.485742 L9.80774006,73.485742 C9.40838021,74.0927255 9.01187197,74.699709 8.63043647,75.31484 L8.63043647,75.31484 C7.09315228,77.7794374 5.74475267,80.3472357 5.07394762,83.2110572 L5.07394762,83.2110572 C4.41400582,86.0232784 2.88907856,90.7840931 4.30401552,96.325839 L4.30401552,96.325839 C4.91778855,98.7332687 6.01225994,101.094665 6.08164888,101.070087 L6.08164888,101.070087 C6.12781765,101.055286 5.68364694,99.9730359 5.41220175,98.3910766 L5.41220175,98.3910766 C5.15555771,96.9124539 4.73311348,94.3743938 6.07472357,92.3606208 L6.07472357,92.3606208 C6.42547042,91.8275073 6.88104753,91.3716586 7.41375364,91.0203686 L7.41375364,91.0203686 C8.21695441,90.5269059 9.15309408,90.2923957 10.0941222,90.3495635 L10.0941222,90.3495635 C10.92258,90.5681862 11.7251018,90.9592629 12.1053152,91.6899515 L12.1053152,91.6899515 C13.0110378,93.4360815 10.5951891,95.3629486 10.0941222,99.0605238 L10.0941222,99.0605238 C9.76686712,101.481668 10.4310184,103.432978 10.765063,104.421532 L10.765063,104.421532 C11.7208923,107.239321 13.3938312,108.992241 14.7844617,110.452124 L14.7844617,110.452124 C16.6935403,112.452182 18.7589137,113.854898 18.8038603,113.800582 L18.8038603,113.800582 C18.8269447,113.77356 18.3625412,113.353695 18.1356353,113.132357 L18.1356353,113.132357 C15.6737536,110.729137 13.7904753,105.014937 15.6737536,103.385587 L15.6737536,103.385587 C16.5020757,102.668477 17.8261688,102.94549 18.2050242,103.024248 L18.2050242,103.024248 C20.1752085,103.437187 21.20871,105.171096 22.18355,106.459748 L22.18355,106.459748 C26.9125897,112.047119 33.8499903,115.2845 41.1699127,115.320078 L41.1699127,115.320078 C37.6355577,113.960951 34.4303589,111.866382 31.766421,109.175558 L31.766421,109.175558 C26.0523569,103.344578 24.8302425,96.5470417 24.1648691,92.8929195 L24.1648691,92.8929195 C23.5509602,89.4477789 22.0886324,80.5780795 26.880679,71.9173618 L26.880679,71.9173618 C27.931969,70.0224054 29.2086712,68.2616101 30.6828128,66.6731329 L30.6828128,66.6731329 C30.5721435,65.9416295 30.2614549,65.2552085 29.7852376,64.6892338 L29.7852376,64.6892338 C29.7852376,64.6892338 29.1129389,63.9097963 28.250805,63.6110572 L28.250805,63.6110572 C28.1000776,63.5594568 27.9492144,63.5242871 27.9492144,63.5242871 L27.9492144,63.5242871 L27.8663822,63.5064985 C27.6572648,63.4671193 27.4455674,63.4345296 27.237808,63.4087294 L27.237808,63.4087294 C26.7554801,63.3468089 26.2769544,63.3167992 25.8018235,63.3167992 L25.8018235,63.3167992 C24.1409699,63.3167992 22.5270999,63.6846557 20.9792241,64.3456838" id="Fill-25" fill="url(#linearGradient-4)"></path>
                    <path d="M8.08451794,76.2803104 C9.25638991,74.6793404 9.15862076,72.6587779 8.08451794,71.5901067 C6.86240349,70.3679922 4.85541998,70.8867119 4.73456644,70.9193016 C3.71206402,71.2017459 3.09693307,71.8535403 2.72486712,72.2595538 C1.5665742,73.5210475 1.32486712,75.0025218 1.14290786,76.1200776 C0.992316198,77.0448109 0.96542968,77.9855674 1.06279146,78.9173618 C0.791210475,77.9260912 0.42729195,76.9511154 0.272490786,75.942192 C-0.737790495,69.3645005 1.33844617,64.2479146 1.99974588,62.8166828 C2.67869835,61.3542192 3.10236469,60.4552861 4.0651193,59.529195 C5.41351891,58.2310378 6.9737517,57.7707081 10.0942173,56.8486906 C11.8201145,56.3394762 12.6497944,56.2512124 13.5310747,56.3544132 C14.3173016,56.4481086 15.4131309,56.5771096 16.2468846,57.356547 C17.7772435,58.785063 17.0249641,61.0907856 18.1343725,61.5388943 C18.6775344,61.7561591 18.9898526,61.2741028 20.1454297,60.8694471 C21.9758855,60.228516 24.5205994,60.271969 26.3198235,61.5891368 C26.7801532,61.9258972 27.6016857,62.6469447 28.1787953,64.0333657 C27.7279709,63.9749758 27.3491154,63.9220175 26.9702599,63.8772066 C23.1681261,63.4263822 20.1997459,65.0042677 18.6503763,65.7592629 C12.6389311,68.6828322 8.68606984,75.25645 8.08451794,76.2803104" id="Fill-28" fill="#662E9B"></path>
                    <path d="M36.7797381,63.5988225 C36.7417168,63.7251077 36.7009796,63.8500349 36.6520951,63.9749622 C36.430485,64.5492202 36.1434239,65.0959127 35.7966149,65.6044481 C35.0312997,66.7415577 34.0807662,67.7421979 32.9843938,68.5646809 C32.4736857,68.7556023 32.0001843,69.034516 31.5857517,69.3889292 C30.9679049,69.9212279 30.5496702,70.5092008 30.4994277,70.4752532 C30.4491853,70.4413055 30.7940931,70.0678817 30.9488943,69.4989195 C31.0425897,69.0647973 31.0425897,68.6158739 30.9488943,68.1817517 C30.5333754,66.162547 28.3294956,64.1460582 28.3294956,64.1460582 C26.581872,62.5450883 24.7120369,60.8273385 22.1537439,60.8694336 C20.9397769,60.8884442 19.7896314,61.2890262 18.8051503,61.6393657 C17.8751212,61.9692008 16.9774103,62.3837692 16.1232881,62.877775 C16.0784772,62.4310242 15.7485063,59.6011503 13.4427837,58.1875713 C11.2701358,56.8541086 8.82590689,57.6987255 7.41232784,58.1875713 C5.56625606,58.8433036 3.94152279,60.0045839 2.72348206,61.5388807 C2.99221145,60.9944966 3.30086324,60.4707527 3.64685742,59.9718584 C4.09021339,59.3250883 4.60390883,58.7293754 5.1785742,58.1957187 C6.37624636,57.0849525 6.88546072,56.9736043 8.67789525,55.6156993 C9.7642192,54.791451 10.724258,53.8286964 11.3122308,52.5726343 C11.9368671,51.2391717 11.7983608,49.9084248 11.0990398,48.9714704 C10.3508341,47.9720524 9.12600388,47.7819457 8.43483026,47.6787449 C5.90369544,47.2998894 3.79486906,48.663226 2.92988361,49.3190941 L2.72483996,49.477969 C4.17535403,47.65987 6.04641125,46.2221203 8.17682832,45.2888322 C9.19104753,44.8342056 10.2629777,44.5212085 11.3624733,44.3586673 C15.1795441,43.8019263 18.9884675,43.8820427 22.7091271,45.0837886 C24.7120369,45.7301513 26.03871,46.8938758 26.5411348,47.2835946 C27.3746169,47.9446227 28.147129,48.6789777 28.8495732,49.477969 C31.5898254,52.6215189 30.637934,54.5538177 32.8703298,57.5194821 C33.0061203,57.7041571 33.1419108,57.8738952 33.2777013,58.0314122 C33.7680407,58.6092008 34.3376819,59.1148846 34.9696508,59.5332551 C35.9296896,60.1782599 36.6222211,60.4294724 36.8856547,61.5388807 C37.0340737,62.2227216 36.9974103,62.9338565 36.7797381,63.5988225" id="Fill-30" fill="#512888"></path>
                    <path d="M32.4099321,68.1668283 C31.8818429,68.7194956 31.3249661,69.2490786 30.8361203,69.8343356 L30.8361203,69.8343356 C29.5637633,71.3579049 28.8835887,73.0878758 29.0832008,75.2836081 L29.0832008,75.2836081 C29.352066,74.8843841 29.5353831,74.6345296 29.7010475,74.3629486 L29.7010475,74.3629486 C30.3214743,73.3633948 31.1349952,72.5501455 32.2985839,72.2989331 L32.2985839,72.2989331 C33.3949564,72.0402522 34.5168574,71.9073133 35.6432396,71.9024248 L35.6432396,71.9024248 C38.3860718,71.9484578 40.6727837,73.271193 42.7423666,74.900679 L42.7423666,74.900679 C43.510805,75.5020951 44.0851988,76.4459748 44.5075073,77.3449079 L44.5075073,77.3449079 C45.1770902,78.7735597 44.7873715,79.5922405 45.1362173,80.2589719 L45.1362173,80.2589719 C45.6576528,81.2556741 47.6539088,81.9332687 53.9165664,80.7396702 L53.9165664,80.7396702 C54.0865761,79.6074491 54.0902425,78.4563531 53.9274297,77.3230456 L53.9274297,77.3230456 C53.796935,76.4296799 53.5703007,74.9740058 52.6467895,73.4803104 L52.6467895,73.4803104 C51.3948012,71.4502425 49.5616295,70.4739088 48.6355383,70.0665373 L48.6355383,70.0665373 C47.4242871,69.5301649 46.2850048,68.9693501 45.1051212,68.5090204 L45.1051212,68.5090204 C42.2209311,67.3848109 39.4384481,66.0919496 37.1464403,63.9491756 L37.1464403,63.9491756 C36.5936372,63.4331717 36.109001,62.842483 35.4721435,62.1635306 L35.4721435,62.1635306 C35.2085742,64.7231814 33.9716586,66.5373424 32.4099321,68.1668283" id="Fill-33" fill="url(#linearGradient-5)"></path>
                    <g id="Fill-36">
                        <use fill="#D8D8D8" xlink:href="#path-7"></use>
                        <use fill="url(#linearGradient-6)" xlink:href="#path-7"></use>
                    </g>
                    <path d="M53.9165257,79.4578623 C53.7196295,77.9247876 53.1165839,74.821839 50.9997459,72.4388516 C50.6161377,72.0097536 50.2014336,71.6099864 49.7586208,71.2425373 C48.8080873,70.4861843 47.5642464,69.8601901 45.1661862,68.9340989 C42.2969331,67.8233327 39.5159437,66.5807139 37.1667682,64.5317711 C34.9221513,62.5748943 33.3809292,60.1333812 32.0067294,57.5602871 C30.0662832,53.9236819 30.1056625,52.4002483 27.7904345,49.6314801 C27.0340815,48.7243996 25.9640524,47.4588322 24.1471756,46.3521397 C21.3566809,44.647969 18.6530921,44.4307042 17.3576508,44.3424403 C14.8523162,44.1699864 12.9308807,44.6140213 11.2538681,45.0118875 C10.1851969,45.2630999 8.83408147,45.5808497 7.18015325,46.3521397 C5.85483802,46.9713443 4.42767992,47.6380757 3.10643841,49.0325082 C2.79412027,49.361257 2.48180213,49.7399767 2.42748594,49.7020912 C2.31749564,49.6246906 3.32913482,47.7874452 4.46434336,46.3521397 C5.80731135,44.6493269 7.80478952,42.1711503 11.3529952,40.3162522 C12.5505315,39.6985412 13.807001,39.2027701 15.1035286,38.8361358 C18.3462056,37.9086867 21.7287468,37.8082017 25.1818991,38.4041862 C28.3607546,38.9473482 31.2137129,40.1436625 33.5506673,42.4697536 C35.4205024,44.3315771 36.8096392,46.4634879 37.9923744,48.7855053 C38.6400951,50.061936 39.4860698,51.2391038 40.1962541,52.4843026 C40.383645,52.8103356 40.4447507,53.2177071 40.5099302,53.5979205 C40.683742,54.5986964 40.727195,55.6347779 41.0055655,56.6028283 C41.7361183,59.1368147 43.5231212,60.6861843 45.9741397,61.6109176 C46.6014918,61.847193 47.1324326,62.3441862 47.6864578,62.750064 C47.9295228,62.9280854 48.1019767,63.1928768 48.3314627,63.3896372 C52.5503375,67.0072318 53.3244791,72.9370669 53.3244791,72.9370669 C53.3353424,73.0728574 53.4779224,74.6290165 53.4900078,74.7607333 C53.5633346,75.5686867 53.8445567,78.6524888 53.9165257,79.4578623" id="Fill-39" fill="#662E9B"></path>
                </g>
            </g>
        </g>
    </g>
</svg>