<?xml version="1.0" encoding="utf-8"?>
<!-- Generator: Adobe Illustrator 26.0.1, SVG Export Plug-In . SVG Version: 6.00 Build 0)  -->
<svg version="1.1" id="Layer_1" xmlns="http://www.w3.org/2000/svg" xmlns:xlink="http://www.w3.org/1999/xlink" x="0px" y="0px"
	 viewBox="0 0 164 164" style="enable-background:new 0 0 164 164;" xml:space="preserve">
<style type="text/css">
	.st0{fill-rule:evenodd;clip-rule:evenodd;fill:#FFFFFF;stroke:#F3CDA8;stroke-width:4;}
	.st1{fill:url(#SVGID_1_);}
	.st2{fill:#2428B6;}
	.st3{fill:url(#SVGID_00000018200460847485792020000007690303610760910234_);}
	.st4{fill:url(#SVGID_00000154400940538394530090000006343414913386184628_);}
	.st5{opacity:0.81;fill:url(#SVGID_00000088818758243848139900000006433461217579471547_);}
	.st6{fill:url(#SVGID_00000057826315015255747000000002367055461326880659_);}
	.st7{fill:#192754;}
</style>
<g id="Pages">
	<g id="_x33_.2-Oncology" transform="translate(-345.000000, -2767.000000)">
		<g id="Group-13-Copy-4" transform="translate(347.000000, 2769.000000)">
			<rect id="Rectangle" class="st0" width="160" height="160"/>
		</g>
	</g>
</g>
<g>
	<g>
		<g>
			<linearGradient id="SVGID_1_" gradientUnits="userSpaceOnUse" x1="54.7294" y1="39.8505" x2="113.7742" y2="39.8505">
				<stop  offset="0" style="stop-color:#2428B9"/>
				<stop  offset="0.1584" style="stop-color:#202897"/>
				<stop  offset="0.3272" style="stop-color:#1D277A"/>
				<stop  offset="0.4949" style="stop-color:#1B2765"/>
				<stop  offset="0.6595" style="stop-color:#192758"/>
				<stop  offset="0.8171" style="stop-color:#192754"/>
			</linearGradient>
			<path class="st1" d="M54.7,60.8V35.5l32.4-16.6c8.9,5.4,17.8,10.8,26.7,16.2C94.1,43.7,74.4,52.2,54.7,60.8z"/>
			<polygon class="st2" points="114,60.8 64.6,30.4 87.1,18.9 113.8,35.1 			"/>
			
				<linearGradient id="SVGID_00000134214657558548963020000012473545751802186930_" gradientUnits="userSpaceOnUse" x1="89.4474" y1="47.9453" x2="114.0402" y2="47.9453">
				<stop  offset="0" style="stop-color:#0F93A4;stop-opacity:0.88"/>
				<stop  offset="0.4828" style="stop-color:#138B90;stop-opacity:0.9379"/>
				<stop  offset="1" style="stop-color:#16847E"/>
			</linearGradient>
			<polygon style="fill:url(#SVGID_00000134214657558548963020000012473545751802186930_);" points="113.8,35.1 114,60.8 89.4,45.7 
							"/>
			
				<linearGradient id="SVGID_00000134948841010463261710000018271414658504978828_" gradientUnits="userSpaceOnUse" x1="54.7294" y1="91.0931" x2="113.7742" y2="91.0931">
				<stop  offset="0" style="stop-color:#AC4493"/>
				<stop  offset="0.2243" style="stop-color:#A64392"/>
				<stop  offset="0.5176" style="stop-color:#96418E"/>
				<stop  offset="0.8479" style="stop-color:#7B3D89"/>
				<stop  offset="1" style="stop-color:#6C3B86"/>
			</linearGradient>
			<path style="fill:url(#SVGID_00000134948841010463261710000018271414658504978828_);" d="M113.8,70.1v25.3L81.4,112
				c-8.9-5.4-17.8-10.8-26.7-16.2C74.4,87.3,94.1,78.7,113.8,70.1z"/>
			
				<linearGradient id="SVGID_00000157269671958704903780000000312407630674957995_" gradientUnits="userSpaceOnUse" x1="54.4634" y1="91.0931" x2="103.8724" y2="91.0931">
				<stop  offset="0" style="stop-color:#0F93A4;stop-opacity:0.88"/>
				<stop  offset="0.4828" style="stop-color:#138B90;stop-opacity:0.9379"/>
				<stop  offset="1" style="stop-color:#16847E"/>
			</linearGradient>
			<polygon style="opacity:0.81;fill:url(#SVGID_00000157269671958704903780000000312407630674957995_);" points="54.5,70.1 
				103.9,100.5 81.4,112 54.7,95.9 			"/>
			
				<linearGradient id="SVGID_00000054988195585819306070000006754920477749733546_" gradientUnits="userSpaceOnUse" x1="54.7313" y1="65.3118" x2="113.7735" y2="65.3118">
				<stop  offset="0.1795" style="stop-color:#512880"/>
				<stop  offset="0.3794" style="stop-color:#4B287B"/>
				<stop  offset="0.6409" style="stop-color:#3B286F"/>
				<stop  offset="0.9354" style="stop-color:#202759"/>
				<stop  offset="1" style="stop-color:#192754"/>
			</linearGradient>
			<polygon style="fill:url(#SVGID_00000054988195585819306070000006754920477749733546_);" points="113.8,70.1 87.6,81.6 
				54.7,60.8 81.7,49.1 			"/>
		</g>
		<polygon class="st2" points="54.5,70.1 54.7,95.9 79.1,85.3 		"/>
	</g>
	<g>
		<path class="st7" d="M24.1,145.1c-0.8,0-1.6-0.1-2.4-0.2c-0.8-0.1-1.6-0.3-2.3-0.6c-0.7-0.2-1.3-0.5-1.7-0.8l0.4-3.9
			c0.8,0.5,1.7,0.9,2.7,1.2c1.1,0.3,2.1,0.4,3.1,0.4c0.9,0,1.6-0.1,2.1-0.4c0.5-0.3,0.7-0.7,0.7-1.3c0-0.3-0.1-0.6-0.3-0.8
			c-0.2-0.2-0.5-0.4-1-0.6c-0.4-0.2-1.1-0.4-1.9-0.6c-2-0.6-3.4-1.3-4.3-2.2c-0.9-0.9-1.3-2.1-1.3-3.6c0-1.7,0.6-3.1,1.9-4.1
			c1.2-1,2.9-1.5,5.1-1.5c1,0,2.1,0.1,3.1,0.4c1,0.3,1.9,0.6,2.6,1l-0.6,3.8c-0.7-0.4-1.4-0.7-2.3-1c-0.9-0.2-1.8-0.4-2.5-0.4
			c-1.7,0-2.5,0.5-2.5,1.6c0,0.4,0.2,0.8,0.6,1c0.4,0.3,1.1,0.5,2.2,0.9c2.2,0.6,3.7,1.4,4.7,2.3c0.9,0.9,1.4,2.1,1.4,3.6
			c0,1.8-0.6,3.2-1.9,4.2C28.2,144.6,26.4,145.1,24.1,145.1z"/>
		<path class="st7" d="M39.7,126.4h5l7.2,18.3h-5.1l-1.4-4.2h-6.7l-1.4,4.2h-4.8L39.7,126.4z M44.1,136.8l-2.1-6.2l-2.1,6.2H44.1z"
			/>
		<path class="st7" d="M54.3,126.4h6.6c2.2,0,3.9,0.6,5.2,1.7c1.3,1.1,1.9,2.6,1.9,4.6c0,2-0.6,3.5-1.9,4.6c-1.3,1.1-3,1.7-5.3,1.7
			h-1.9v5.8h-4.6V126.4z M58.9,135.3h1.3c2.1,0,3.2-0.9,3.2-2.6c0-0.9-0.3-1.5-0.8-1.9c-0.5-0.4-1.3-0.6-2.4-0.6h-1.3V135.3z"/>
		<path class="st7" d="M70.6,126.4h6.6c2.2,0,3.9,0.6,5.2,1.7c1.3,1.1,1.9,2.6,1.9,4.6c0,2-0.6,3.5-1.9,4.6c-1.3,1.1-3,1.7-5.3,1.7
			h-1.9v5.8h-4.6V126.4z M75.2,135.3h1.3c2.1,0,3.2-0.9,3.2-2.6c0-0.9-0.3-1.5-0.8-1.9c-0.5-0.4-1.3-0.6-2.4-0.6h-1.3V135.3z"/>
		<path class="st7" d="M87,126.4h4.9v6.9H99v-6.9h4.9v18.3H99v-7.4h-7.1v7.4H87V126.4z"/>
		<path class="st7" d="M107.7,126.4h4.9v18.3h-4.9V126.4z"/>
		<path class="st7" d="M116.4,126.4h6.6c2.2,0,4,0.5,5.3,1.6c1.3,1.1,1.9,2.6,1.9,4.5c0,1-0.2,1.9-0.7,2.8c-0.5,0.9-1.2,1.5-2,2.1
			l4.5,7.2h-5.3l-3.2-5.9c-0.1,0-0.2,0-0.4,0c-0.2,0-0.3,0-0.4,0c-0.1,0-0.2,0-0.3,0H121v5.9h-4.6V126.4z M121,135.2h1.3
			c2.1,0,3.2-0.9,3.2-2.6c0-0.8-0.3-1.5-0.8-1.9c-0.5-0.4-1.3-0.6-2.4-0.6H121V135.2z"/>
		<path class="st7" d="M134.3,126.4H147v3.8h-8.1v3.3h7.1v3.8h-7.1v3.5h8.4v3.8h-13V126.4z"/>
	</g>
</g>
</svg>
