<?xml version="1.0" encoding="UTF-8"?>
<svg width="1440px" height="1215px" viewBox="0 0 1440 1215" version="1.1" xmlns="http://www.w3.org/2000/svg" xmlns:xlink="http://www.w3.org/1999/xlink">
    <title>contact bg</title>
    <g id="contact-bg" stroke="none" stroke-width="1" fill="none" fill-rule="evenodd">
        <g id="Graphic-/-Blobs">
            <g id="Group-3" transform="translate(877.116663, 211.948768) rotate(-195.000000) translate(-877.116663, -211.948768) translate(766.116663, 111.448768)" fill="#F3F9EB">
                <path d="M18.2117589,171.088241 C61.3014256,221.658675 177.33762,204.803213 211.11658,140.028265 C224.411151,114.534146 225.336796,80.900144 212.113172,53.7736761 C191.021146,10.5091379 139.425391,-4.93502206 99.1393696,1.34255855 C50.4507589,8.92941915 7.14074027,49.9778167 0.9400016,100.52234 C0.0869722667,107.47116 -4.4536144,144.486457 18.2117589,171.088241" id="Fill-1"></path>
            </g>
            <g id="Group-3" transform="translate(0.000000, 667.000000)" fill="#E8F4F2">
                <path d="M271.090843,168.688095 C271.419835,170.729331 271.786363,172.925937 272.374795,175.902606 C275.194411,190.156972 282.333979,217.592046 299.914075,239.73705 C330.404347,278.139081 384.867979,286.400463 407.949307,289.410349 C432.020923,292.548817 444.900187,289.861457 475.498651,297.62887 C485.319835,300.122286 502.585291,304.503712 520.579387,313.67481 C538.809739,322.963775 580.807003,344.366218 596.004667,390.871047 C609.382939,431.808284 598.210459,480.61687 569.290075,511.966189 C522.096283,563.124608 447.582907,546.171096 424.135051,540.83495 C412.592731,538.208667 342.306571,521.524104 305.929771,459.364439 C279.140107,413.58824 295.992667,385.28631 260.363275,342.508211 C253.489771,334.255401 228.063547,303.726863 187.523563,294.536478 C184.805515,293.920356 182.488219,293.50568 180.195211,293.234587 C151.279243,289.812167 129.690523,292.10521 122.209819,292.917418 C96.8597712,295.671212 62.3730192,287.548056 40.4243952,271.056366 C-0.4445808,240.34567 -0.0548688,178.959639 0.0058512,169.430655 C0.5037552,91.1339709 62.8974192,43.194383 71.0736432,37.1253212 C85.4720112,26.4380291 153.583291,-20.6379176 213.612187,10.4745964 C236.740987,22.4616364 268.638859,51.2232461 270.691195,85.4152945 C271.791883,103.756419 264.582763,128.323047 271.090843,168.688095" id="Fill-1"></path>
            </g>
            <g id="Group-3" transform="translate(996.038573, 331.369335) scale(-1, 1) rotate(-180.000000) translate(-996.038573, -331.369335) translate(623.038573, 0.369335)" fill="#FCF2E9">
                <path d="M325.67024,173.067776 C349.641032,211.334336 380.318788,230.609594 416.504092,253.343616 C464.90516,283.754467 506.89098,295.370409 519.369664,298.599005 C532.71974,302.051514 555.702704,304.570845 601.444524,310.615238 C643.407808,316.160518 644.900192,315.546321 654.196292,318.452183 C666.5961,322.328751 709.268016,335.667194 732.243468,375.61998 C748.860012,404.510976 748.377992,433.555834 741.254112,490.978816 C737.774804,519.024198 734.490808,543.800954 719.162572,572.182831 C713.761444,582.182598 686.500396,630.310074 630.504696,650.597318 C611.942544,657.320954 582.459196,668.002467 551.459676,654.541434 C522.514688,641.973551 508.435948,615.38798 502.560312,604.288663 C491.363676,583.145798 488.909756,564.385914 485.720912,538.118074 C480.353588,493.907194 488.087192,487.655151 483.105484,455.434234 C476.626384,413.516271 457.36186,384.0411 450.278044,374.047587 C424.655864,337.89006 392.310444,321.294249 371.314404,310.520169 C345.123816,297.082903 323.477988,291.744023 296.380952,285.016634 C257.491328,275.359616 242.179368,276.530467 205.607196,270.654947 C147.096228,261.253114 112.708796,255.727849 79.673524,234.331049 C70.359896,228.299165 -7.8876,177.433449 0.649788,104.889478 C6.837172,52.3137687 56.860832,16.6866269 95.67158,5.07318691 C157.661856,-13.476544 210.158216,23.5153396 235.002904,41.0205615 C266.370512,63.1241251 284.615908,94.2755142 292.927936,107.381289 C313.15024,139.266961 309.32538,146.973812 325.67024,173.067776" id="Fill-1"></path>
            </g>
        </g>
    </g>
</svg>