<?xml version="1.0" encoding="UTF-8"?>
<svg width="1440px" height="1312px" viewBox="0 0 1440 1312" version="1.1" xmlns="http://www.w3.org/2000/svg" xmlns:xlink="http://www.w3.org/1999/xlink">
    <title>Graphic / Patients Blobs</title>
    <g id="Graphic-/-Patients-Blobs" stroke="none" stroke-width="1" fill="none" fill-rule="evenodd">
        <path d="M1089.21203,193.088485 C1132.3017,243.658919 1248.33789,226.803457 1282.11685,162.028509 C1295.41142,136.53439 1296.33707,102.900388 1283.11345,75.7739201 C1262.02142,32.5093819 1210.42566,17.0652219 1170.13964,23.3428025 C1121.45103,30.9296631 1078.14101,71.9780607 1071.94028,122.522584 C1071.08725,129.471404 1066.54666,166.486701 1089.21203,193.088485" id="Fill-1" fill="#F3F9EB"></path>
        <path d="M962.091416,168.688095 C962.420408,170.729331 962.786936,172.925937 963.375368,175.902606 C966.194984,190.156972 973.334552,217.592046 990.914648,239.73705 C1021.40492,278.139081 1075.86855,286.400463 1098.94988,289.410349 C1123.0215,292.548817 1135.90076,289.861457 1166.49922,297.62887 C1176.32041,300.122286 1193.58586,304.503712 1211.57996,313.67481 C1229.81031,322.963775 1271.80758,344.366218 1287.00524,390.871047 C1300.38351,431.808284 1289.21103,480.61687 1260.29065,511.966189 C1213.09686,563.124608 1138.58348,546.171096 1115.13562,540.83495 C1103.5933,538.208667 1033.30714,521.524104 996.930344,459.364439 C970.14068,413.58824 986.99324,385.28631 951.363848,342.508211 C944.490344,334.255401 919.06412,303.726863 878.524136,294.536478 C875.806088,293.920356 873.488792,293.50568 871.195784,293.234587 C842.279816,289.812167 820.691096,292.10521 813.210392,292.917418 C787.860344,295.671212 753.373592,287.548056 731.424968,271.056366 C690.555992,240.34567 690.945704,178.959639 691.006424,169.430655 C691.504328,91.1339709 753.897992,43.194383 762.074216,37.1253212 C776.472584,26.4380291 844.583864,-20.6379176 904.61276,10.4745964 C927.74156,22.4616364 959.639432,51.2232461 961.691768,85.4152945 C962.792456,103.756419 955.583336,128.323047 962.091416,168.688095" id="Fill-1" fill="#E8F4F2"></path>
        <path d="M329.891028,552.447489 C353.51005,590.134675 383.737611,609.118096 419.391898,631.507914 C467.082682,661.458329 508.452362,672.8984 520.747922,676.078114 C533.902087,679.47835 556.547777,681.959537 601.618337,687.912415 C642.965812,693.373737 644.436296,692.76884 653.595976,695.630705 C665.813817,699.44858 707.859525,712.585073 730.497813,751.932953 C746.87051,780.386526 746.395564,808.991631 739.376226,865.545201 C735.947977,893.165962 732.712173,917.567586 717.608879,945.519747 C712.287012,955.368113 685.426018,1002.76692 630.252053,1022.747 C611.9623,1029.36884 582.911618,1039.88863 552.367015,1026.6314 C523.846793,1014.2538 509.974658,988.070749 504.185247,977.139481 C493.152921,956.316729 490.735012,937.840879 487.592964,911.970747 C482.304405,868.429242 489.924519,862.271857 485.015917,830.538781 C478.631898,789.255476 459.65008,760.226574 452.670219,750.384367 C427.424043,714.774283 395.55329,698.429741 374.865366,687.818785 C349.059124,674.584967 327.730948,669.32692 301.031559,662.701387 C262.712639,653.190581 247.625381,654.343704 211.589904,648.557143 C153.937582,639.297658 120.054784,633.856048 87.5043028,612.783206 C78.3273519,606.842648 1.22813425,556.747063 9.64023648,485.301444 C15.7368209,433.521756 65.026386,398.434027 103.267588,386.99642 C164.34816,368.727541 216.074138,405.15935 240.554231,422.399534 C271.461521,444.168439 289.439167,474.848181 297.629216,487.755527 C317.554759,519.158435 313.786028,526.748601 329.891028,552.447489" id="Fill-1" fill="#FCF2E9" transform="translate(376.500000, 707.500000) scale(-1, 1) rotate(-4.000000) translate(-376.500000, -707.500000) "></path>
    </g>
</svg>