<?xml version="1.0" encoding="UTF-8"?>
<svg width="1440px" height="1035px" viewBox="0 0 1440 1035" version="1.1" xmlns="http://www.w3.org/2000/svg" xmlns:xlink="http://www.w3.org/1999/xlink">
    <title>Graphic / Our Science Blobs</title>
    <g id="Graphic-/-Our-Science-Blobs" stroke="none" stroke-width="1" fill="none" fill-rule="evenodd">
        <g id="Graphic-/-Blobs">
            <g id="Group-3" transform="translate(342.000000, 834.000000)" fill="#F3F9EB">
                <path d="M18.2117589,171.088241 C61.3014256,221.658675 177.33762,204.803213 211.11658,140.028265 C224.411151,114.534146 225.336796,80.900144 212.113172,53.7736761 C191.021146,10.5091379 139.425391,-4.93502206 99.1393696,1.34255855 C50.4507589,8.92941915 7.14074027,49.9778167 0.9400016,100.52234 C0.0869722667,107.47116 -4.4536144,144.486457 18.2117589,171.088241" id="Fill-1"></path>
            </g>
            <g id="Group-3" transform="translate(634.000000, 0.000000)" fill="#E8F4F2">
                <path d="M249.634199,155.190468 C249.93715,157.068375 250.274667,159.089221 250.816524,161.827714 C253.412964,174.941524 259.987427,200.181395 276.176036,220.554478 C304.252966,255.883791 354.405735,263.484142 375.660148,266.253194 C397.826466,269.140539 409.68632,266.668207 437.862878,273.814114 C446.906704,276.108021 462.805578,280.138869 479.375419,288.576146 C496.162816,297.12186 534.835945,316.811798 548.830696,359.595567 C561.150061,397.257232 550.861896,442.160425 524.230596,471.001345 C480.772251,518.06635 412.1567,502.469363 390.56477,497.560187 C379.936039,495.144044 315.213115,479.794488 281.715583,422.608496 C257.046353,380.495056 272.565013,354.45769 239.755731,315.102458 C233.426273,307.509993 210.012566,279.424179 172.681371,270.969158 C170.17846,270.402335 168.044581,270.020839 165.933067,269.771437 C139.305833,266.622861 119.425887,268.732427 112.53729,269.479647 C89.1937292,272.013097 57.4366458,264.539911 37.2252823,249.367795 C-0.408864209,221.1144 -0.0499983913,164.640139 0.00591554637,155.873612 C0.464409835,83.8417966 57.9195389,39.7380698 65.4486048,34.1546208 C78.7073244,24.3224668 141.427513,-18.9867226 196.705049,9.63633978 C218.003176,20.664243 247.376292,47.1245075 249.266183,78.5806971 C250.27975,95.4542664 243.641241,118.055208 249.634199,155.190468" id="Fill-1"></path>
            </g>
            <g id="Group-3" transform="translate(390.573571, 638.496832) scale(-1, 1) rotate(-7.000000) translate(-390.573571, -638.496832) translate(36.073571, 324.496832)" fill="#FCF2E9">
                <path d="M309.179558,164.614886 C331.930943,200.912682 361.048104,219.196254 395.392641,240.760641 C441.331519,269.606894 481.181496,280.625211 493.025383,283.6877 C505.696333,286.962582 527.51014,289.352297 570.925048,295.085713 C610.753636,300.345696 612.170101,299.763099 620.993304,302.519458 C632.762326,306.196582 673.263498,318.84878 695.070175,356.746048 C710.841426,384.150641 710.383927,411.701179 703.622443,466.169825 C700.320129,492.772309 697.203192,516.274334 682.654712,543.196001 C677.528342,552.681293 651.654079,598.332675 598.506913,617.576167 C580.889028,623.953881 552.905514,634.085844 523.482958,621.317363 C496.010418,609.396081 482.647871,584.178302 477.071132,573.650031 C466.444075,553.594938 464.114988,535.800225 461.088362,510.883831 C455.994077,468.947542 463.334268,463.017158 458.605982,432.453965 C452.456478,392.692625 434.171951,364.733912 427.448493,355.254552 C403.129727,320.957282 372.429737,305.215303 352.501778,294.995536 C327.64352,282.2496 307.098827,277.185398 281.380233,270.804124 C244.468946,261.643947 229.935914,262.754559 195.22419,257.181327 C139.689708,248.263206 107.051584,243.022208 75.696835,222.726245 C66.8569965,217.004693 -7.41000493,168.755951 0.693081293,99.9442709 C6.56570956,50.0735123 54.0446376,16.2793396 90.8810608,5.2633957 C149.717856,-12.3319762 199.543697,22.7567241 223.124521,39.3613255 C252.896441,60.3276901 270.213684,89.8763816 278.102874,102.307881 C297.296458,132.553079 293.666171,139.863422 309.179558,164.614886" id="Fill-1"></path>
            </g>
        </g>
    </g>
</svg>