<?xml version="1.0" encoding="UTF-8"?>
<svg width="1440px" height="1368px" viewBox="0 0 1440 1368" version="1.1" xmlns="http://www.w3.org/2000/svg" xmlns:xlink="http://www.w3.org/1999/xlink">
    <title>legal-blobs</title>
    <g id="legal-blobs" stroke="none" stroke-width="1" fill="none" fill-rule="evenodd">
        <g id="Graphic-/-Our-Pipeline---Blobs" transform="translate(-336.000000, 0.000000)">
            <path d="M1383.21146,544.088485 C1426.30113,594.658919 1542.33732,577.803457 1576.11628,513.028509 C1589.41085,487.53439 1590.3365,453.900388 1577.11287,426.77392 C1556.02085,383.509382 1504.42509,368.065222 1464.13907,374.342803 C1415.45046,381.929663 1372.14044,422.978061 1365.9397,473.522584 C1365.08667,480.471404 1360.54609,517.486701 1383.21146,544.088485" id="Fill-1" fill="#F3F9EB" transform="translate(1475.785976, 473.328884) rotate(5.000000) translate(-1475.785976, -473.328884) "></path>
            <path d="M461.050197,296.737374 C483.415964,332.456258 512.039614,350.448226 545.80204,371.668683 C590.962294,400.054868 630.136848,410.897454 641.77999,413.9111 C654.236178,417.133751 675.68026,419.485352 718.359322,425.127327 C757.512849,430.303418 758.905307,429.730113 767.578963,432.442511 C779.148511,436.060988 818.963222,448.511397 840.400295,485.804242 C855.904237,512.771761 855.454491,539.882897 848.807609,593.482824 C845.561266,619.661026 842.497159,642.788218 828.195263,669.280512 C823.155781,678.614524 797.720065,723.537813 745.473697,742.474391 C728.154421,748.750388 700.645204,758.720756 671.721335,746.15592 C644.714431,734.424769 631.578369,709.609188 626.09615,699.248832 C615.649213,679.513597 613.359602,662.002692 610.384275,637.483688 C605.376333,596.216239 612.592115,590.380438 607.943969,560.304697 C601.898694,521.177509 583.924074,493.664709 577.314573,484.336535 C553.40799,450.586271 523.228339,435.09536 503.638141,425.038587 C479.20121,412.495936 459.004733,407.512503 433.722046,401.233004 C397.436375,392.218921 383.149665,393.311821 349.026275,387.827476 C294.433055,379.051589 262.34812,373.89418 231.524808,353.921917 C222.834797,348.291618 149.826558,300.812393 157.792304,233.098188 C163.565396,184.022816 210.239597,150.767626 246.451674,139.927375 C304.291235,122.612631 353.27257,157.141703 376.45372,173.481478 C405.721031,194.113451 422.744761,223.190871 430.500236,235.424101 C449.368505,265.186919 445.799748,272.38067 461.050197,296.737374" id="Fill-1" fill="#FCF2E9" transform="translate(505.186039, 443.691904) scale(-1, 1) rotate(114.000000) translate(-505.186039, -443.691904) "></path>
            <path d="M894.636531,222.994748 C899.577944,172.740212 904.304226,124.6782 879.450083,85.7686464 C861.474623,57.6305268 829.580449,37.6889523 795.408746,35.2499911 C732.343717,30.7478036 692.092386,88.4319434 685.763602,97.4993093 C654.756291,141.935481 656.525629,190.531257 657.333465,212.788022 C658.117154,234.340836 659.874418,269.525089 681.825399,303.713644 C702.53938,335.972691 731.006836,351.156799 748.05482,360.248478 C778.65492,376.568631 787.817717,372.685301 827.700253,393.567318 C844.946904,402.59711 863.577633,412.123094 878.028686,426.332502 C890.280141,438.378119 896.397087,451.952093 908.130473,478.607165 C914.807198,493.774696 913.971921,495.191438 926.738153,529.168919 C936.176449,554.289004 940.896146,566.849599 945.172411,574.52343 C946.246965,576.450729 962.507967,606.631078 990.064411,623.502678 C1020.59536,642.193276 1049.23953,639.556502 1077.69052,640.079215 C1102.27136,640.531202 1230.71188,645.798121 1282.59012,722.24027 C1300.53156,748.678742 1310.77111,785.773717 1316.43913,806.309837 C1324.59652,835.858067 1318.95265,833.085365 1330.13394,876.234092 C1343.09225,926.236664 1354.3383,967.064676 1384.96364,992.063199 C1410.35122,1012.78608 1453.59462,1026.07052 1488.93637,1009.5846 C1561.26847,975.84582 1548.87213,837.758844 1547.10828,820.271702 C1543.24032,781.920225 1539.28566,742.715609 1511.21663,714.073563 C1476.62894,678.779904 1414.26857,668.551076 1344.33035,657.077902 C1341.75866,656.655753 1331.84291,655.047828 1318.76166,651.13245 C1315.54239,650.168801 1312.17604,649.044912 1308.47492,647.665744 C1270.86662,633.650834 1247.10569,609.312057 1225.59155,586.80775 C1206.19031,566.513647 1186.631,546.05599 1170.98356,512.589066 C1154.35047,477.015817 1158.05598,460.796228 1138.32985,440.340781 C1120.63428,421.992764 1099.61297,416.177715 1085.3057,412.261232 C1049.73675,402.526384 1040.56407,414.408446 995.663289,408.162406 C971.99785,404.870306 950.356394,401.858902 928.414194,385.456971 C922.69458,381.181329 898.733886,362.511728 887.84346,329.134317 C876.908032,295.626504 889.289004,277.362476 894.636531,222.994748" id="Fill-1" fill="#E8EFEF" transform="translate(1103.000000, 526.000000) rotate(-270.000000) translate(-1103.000000, -526.000000) "></path>
            <path d="M352.091416,917.687945 C352.420408,919.729182 352.786936,921.925788 353.375368,924.902457 C356.194984,939.156823 363.334552,966.591897 380.914648,988.736901 C411.40492,1027.13893 465.868552,1035.40031 488.94988,1038.4102 C513.021496,1041.54867 525.90076,1038.86131 556.499224,1046.62872 C566.320408,1049.12214 583.585864,1053.50356 601.57996,1062.67466 C619.810312,1071.96363 661.807576,1093.36607 677.00524,1139.8709 C690.383512,1180.80813 679.211032,1229.61672 650.290648,1260.96604 C603.096856,1312.12446 528.58348,1295.17095 505.135624,1289.8348 C493.593304,1287.20852 423.307144,1270.52396 386.930344,1208.36429 C360.14068,1162.58809 376.99324,1134.28616 341.363848,1091.50806 C334.490344,1083.25525 309.06412,1052.72671 268.524136,1043.53633 C265.806088,1042.92021 263.488792,1042.50553 261.195784,1042.23444 C232.279816,1038.81202 210.691096,1041.10506 203.210392,1041.91727 C177.860344,1044.67106 143.373592,1036.54791 121.424968,1020.05622 C80.555992,989.345521 80.945704,927.95949 81.006424,918.430505 C81.504328,840.133822 143.897992,792.194234 152.074216,786.125172 C166.472584,775.43788 234.583864,728.361933 294.61276,759.474447 C317.74156,771.461487 349.639432,800.223097 351.691768,834.415145 C352.792456,852.75627 345.583336,877.322898 352.091416,917.687945" id="Fill-1" fill="#E8F4F2" transform="translate(381.809435, 1022.917354) rotate(22.000000) translate(-381.809435, -1022.917354) "></path>
        </g>
    </g>
</svg>