<?xml version="1.0" encoding="UTF-8"?>
<svg width="1440px" height="1368px" viewBox="0 0 1440 1368" version="1.1" xmlns="http://www.w3.org/2000/svg" xmlns:xlink="http://www.w3.org/1999/xlink">
    <title>Graphic / Our Pipeline - Blobs</title>
    <g id="Graphic-/-Our-Pipeline---Blobs" stroke="none" stroke-width="1" fill="none" fill-rule="evenodd">
        <path d="M1047.21146,544.088485 C1090.30113,594.658919 1206.33732,577.803457 1240.11628,513.028509 C1253.41085,487.53439 1254.3365,453.900388 1241.11287,426.77392 C1220.02085,383.509382 1168.42509,368.065222 1128.13907,374.342803 C1079.45046,381.929663 1036.14044,422.978061 1029.9397,473.522584 C1029.08667,480.471404 1024.54609,517.486701 1047.21146,544.088485" id="Fill-1" fill="#F3F9EB" transform="translate(1139.785976, 473.328884) rotate(5.000000) translate(-1139.785976, -473.328884) "></path>
        <path d="M125.050197,296.737374 C147.415964,332.456258 176.039614,350.448226 209.80204,371.668683 C254.962294,400.054868 294.136848,410.897454 305.77999,413.9111 C318.236178,417.133751 339.68026,419.485352 382.359322,425.127327 C421.512849,430.303418 422.905307,429.730113 431.578963,432.442511 C443.148511,436.060988 482.963222,448.511397 504.400295,485.804242 C519.904237,512.771761 519.454491,539.882897 512.807609,593.482824 C509.561266,619.661026 506.497159,642.788218 492.195263,669.280512 C487.155781,678.614524 461.720065,723.537813 409.473697,742.474391 C392.154421,748.750388 364.645204,758.720756 335.721335,746.15592 C308.714431,734.424769 295.578369,709.609188 290.09615,699.248832 C279.649213,679.513597 277.359602,662.002692 274.384275,637.483688 C269.376333,596.216239 276.592115,590.380438 271.943969,560.304697 C265.898694,521.177509 247.924074,493.664709 241.314573,484.336535 C217.40799,450.586271 187.228339,435.09536 167.638141,425.038587 C143.20121,412.495936 123.004733,407.512503 97.7220465,401.233004 C61.4363748,392.218921 47.1496654,393.311821 13.0262749,387.827476 C-41.5669445,379.051589 -73.6518798,373.89418 -104.475192,353.921917 C-113.165203,348.291618 -186.173442,300.812393 -178.207696,233.098188 C-172.434604,184.022816 -125.760403,150.767626 -89.5483263,139.927375 C-31.7087646,122.612631 17.27257,157.141703 40.4537196,173.481478 C69.7210307,194.113451 86.7447605,223.190871 94.5002358,235.424101 C113.368505,265.186919 109.799748,272.38067 125.050197,296.737374" id="Fill-1" fill="#FCF2E9" transform="translate(169.186039, 443.691904) scale(-1, 1) rotate(114.000000) translate(-169.186039, -443.691904) "></path>
        <path d="M558.636531,222.994748 C563.577944,172.740212 568.304226,124.6782 543.450083,85.7686464 C525.474623,57.6305268 493.580449,37.6889523 459.408746,35.2499911 C396.343717,30.7478036 356.092386,88.4319434 349.763602,97.4993093 C318.756291,141.935481 320.525629,190.531257 321.333465,212.788022 C322.117154,234.340836 323.874418,269.525089 345.825399,303.713644 C366.53938,335.972691 395.006836,351.156799 412.05482,360.248478 C442.65492,376.568631 451.817717,372.685301 491.700253,393.567318 C508.946904,402.59711 527.577633,412.123094 542.028686,426.332502 C554.280141,438.378119 560.397087,451.952093 572.130473,478.607165 C578.807198,493.774696 577.971921,495.191438 590.738153,529.168919 C600.176449,554.289004 604.896146,566.849599 609.172411,574.52343 C610.246965,576.450729 626.507967,606.631078 654.064411,623.502678 C684.595362,642.193276 713.239531,639.556502 741.690522,640.079215 C766.271362,640.531202 894.711876,645.798121 946.590125,722.24027 C964.531559,748.678742 974.771106,785.773717 980.439132,806.309837 C988.596525,835.858067 982.952645,833.085365 994.133936,876.234092 C1007.09225,926.236664 1018.3383,967.064676 1048.96364,992.063199 C1074.35122,1012.78608 1117.59462,1026.07052 1152.93637,1009.5846 C1225.26847,975.84582 1212.87213,837.758844 1211.10828,820.271702 C1207.24032,781.920225 1203.28566,742.715609 1175.21663,714.073563 C1140.62894,678.779904 1078.26857,668.551076 1008.33035,657.077902 C1005.75866,656.655753 995.842906,655.047828 982.761662,651.13245 C979.54239,650.168801 976.176039,649.044912 972.474918,647.665744 C934.866617,633.650834 911.105688,609.312057 889.591553,586.80775 C870.190306,566.513647 850.631004,546.05599 834.983563,512.589066 C818.350473,477.015817 822.055984,460.796228 802.329846,440.340781 C784.634276,421.992764 763.612966,416.177715 749.305698,412.261232 C713.736746,402.526384 704.56407,414.408446 659.663289,408.162406 C635.99785,404.870306 614.356394,401.858902 592.414194,385.456971 C586.69458,381.181329 562.733886,362.511728 551.84346,329.134317 C540.908032,295.626504 553.289004,277.362476 558.636531,222.994748" id="Fill-1" fill="#E8EFEF" transform="translate(767.000000, 526.000000) rotate(-270.000000) translate(-767.000000, -526.000000) "></path>
        <path d="M16.091416,917.687945 C16.420408,919.729182 16.786936,921.925788 17.375368,924.902457 C20.194984,939.156823 27.334552,966.591897 44.914648,988.736901 C75.40492,1027.13893 129.868552,1035.40031 152.94988,1038.4102 C177.021496,1041.54867 189.90076,1038.86131 220.499224,1046.62872 C230.320408,1049.12214 247.585864,1053.50356 265.57996,1062.67466 C283.810312,1071.96363 325.807576,1093.36607 341.00524,1139.8709 C354.383512,1180.80813 343.211032,1229.61672 314.290648,1260.96604 C267.096856,1312.12446 192.58348,1295.17095 169.135624,1289.8348 C157.593304,1287.20852 87.307144,1270.52396 50.930344,1208.36429 C24.14068,1162.58809 40.99324,1134.28616 5.36384802,1091.50806 C-1.50965598,1083.25525 -26.93588,1052.72671 -67.475864,1043.53633 C-70.193912,1042.92021 -72.511208,1042.50553 -74.804216,1042.23444 C-103.720184,1038.81202 -125.308904,1041.10506 -132.789608,1041.91727 C-158.139656,1044.67106 -192.626408,1036.54791 -214.575032,1020.05622 C-255.444008,989.345521 -255.054296,927.95949 -254.993576,918.430505 C-254.495672,840.133822 -192.102008,792.194234 -183.925784,786.125172 C-169.527416,775.43788 -101.416136,728.361933 -41.38724,759.474447 C-18.25844,771.461487 13.639432,800.223097 15.691768,834.415145 C16.792456,852.75627 9.58333602,877.322898 16.091416,917.687945" id="Fill-1" fill="#E8F4F2" transform="translate(45.809435, 1022.917354) rotate(22.000000) translate(-45.809435, -1022.917354) "></path>
    </g>
</svg>