<?xml version="1.0" encoding="UTF-8"?>
<svg width="70px" height="49px" viewBox="0 0 70 49" version="1.1" xmlns="http://www.w3.org/2000/svg" xmlns:xlink="http://www.w3.org/1999/xlink">
    <title>Group 9</title>
    <defs>
        <polygon id="path-1" points="4.83516484e-05 0.19485 43.8163121 0.19485 43.8163121 16 4.83516484e-05 16"></polygon>
        <polygon id="path-3" points="4.83516484e-05 0.431515152 43.8162637 0.431515152 43.8162637 15.7579152 4.83516484e-05 15.7579152"></polygon>
    </defs>
    <g id="Pages" stroke="none" stroke-width="1" fill="none" fill-rule="evenodd">
        <g id="Careers" transform="translate(-739.000000, -1367.000000)">
            <g id="Group-9" transform="translate(739.000000, 1367.000000)">
                <g id="Group-3" transform="translate(0.000000, 32.390244)">
                    <mask id="mask-2" fill="white">
                        <use xlink:href="#path-1"></use>
                    </mask>
                    <g id="Clip-2"></g>
                    <path d="M43.8163121,8.09485 C43.8163121,12.45985 40.3930154,16.00035 36.1719165,16.00035 C34.3732352,16.00035 32.7196088,15.35535 31.4189495,14.27985 C31.1433451,13.99535 30.8629055,13.72535 30.5776308,13.47535 C22.9670813,6.74535 13.7996088,13.20985 12.5381143,14.16535 C11.2127956,15.31035 9.50114725,16.00035 7.63960879,16.00035 C3.41850989,16.00035 4.83516484e-05,12.45985 4.83516484e-05,8.09485 C4.83516484e-05,3.73035 3.41850989,0.19485 7.63960879,0.19485 C9.43345495,0.19485 11.0822462,0.83485 12.3877407,1.91035 C12.6875209,2.21985 12.9873011,2.50485 13.2870813,2.77485 C13.2919165,2.77985 13.2967516,2.77985 13.2967516,2.78535 C21.1732352,9.77985 29.7846637,3.25985 31.2158725,2.08485 C31.2787297,2.02985 31.3319165,1.98485 31.3657626,1.95535 C31.3851033,1.93985 31.3996088,1.92485 31.4189495,1.91535 L31.4189495,1.91035 C32.7196088,0.83985 34.3732352,0.19485 36.1719165,0.19485 C40.3930154,0.19485 43.8163121,3.73035 43.8163121,8.09485" id="Fill-1" fill="#F3CDA8" mask="url(#mask-2)"></path>
                </g>
                <path d="M58,24.8876341 C58,29.0301794 54.5623483,32.3902439 50.3235489,32.3902439 C48.5173251,32.3902439 46.8567645,31.7781152 45.5506511,30.7626459 L45.5506511,30.7574262 C45.5409402,30.752681 45.5360847,30.7484104 45.5312293,30.7431907 C45.2690355,30.4874253 45.0019863,30.2449464 44.7300817,30.0176521 C37.0390642,23.5589826 27.7554624,29.8183544 26.5658795,30.6720129 C26.5610241,30.6720129 26.5610241,30.6720129 26.5561686,30.6767581 C26.5076142,30.7147196 26.4736261,30.7384455 26.4542044,30.752681 C26.4444935,30.7574262 26.439638,30.7626459 26.439638,30.7626459 C25.1286692,31.7823859 23.472964,32.3902439 21.6715957,32.3902439 C17.4327963,32.3902439 14,29.0301794 14,24.8876341 C14,20.7455633 17.4327963,17.3902439 21.6715957,17.3902439 C23.472964,17.3902439 25.1286692,17.9976274 26.439638,19.0183164 C26.7406753,19.3120433 27.0417126,19.5825187 27.3427499,19.8387587 C27.3476054,19.8435038 27.3524608,19.8435038 27.3524608,19.8487235 C35.2619731,26.4867609 43.9095122,20.2990415 45.3467226,19.1839233 C45.4098433,19.1317263 45.4632531,19.0890196 45.4972412,19.0610231 C45.516663,19.046313 45.5312293,19.0320774 45.5506511,19.0230616 L45.5506511,19.0183164 C46.8567645,18.0023726 48.5173251,17.3902439 50.3235489,17.3902439 C54.5623483,17.3902439 58,20.7455633 58,24.8876341" id="Fill-4" fill="#A3C0C0"></path>
                <g id="Group-8" transform="translate(26.000000, 0.390244)">
                    <mask id="mask-4" fill="white">
                        <use xlink:href="#path-3"></use>
                    </mask>
                    <g id="Clip-7"></g>
                    <path d="M43.8163121,8.09197576 C43.8163121,12.324703 40.3930154,15.7579152 36.1719165,15.7579152 C34.3732352,15.7579152 32.7196088,15.1324606 31.4189495,14.0895515 C31.1433451,13.8136727 30.8629055,13.5518545 30.5776308,13.3094303 C22.9670813,6.7833697 13.7996088,13.0519758 12.5381143,13.9785212 C11.2127956,15.0888242 9.50114725,15.7579152 7.63960879,15.7579152 C3.41850989,15.7579152 4.83516484e-05,12.324703 4.83516484e-05,8.09197576 C4.83516484e-05,3.85973333 3.41850989,0.431369697 7.63960879,0.431369697 C9.43345495,0.431369697 11.0822462,1.05197576 12.3877407,2.09488485 C12.6875209,2.39500606 12.9873011,2.6713697 13.2870813,2.93318788 C13.2919165,2.93803636 13.2967516,2.93803636 13.2967516,2.9433697 C21.1732352,9.72591515 29.7846637,3.40349091 31.2158725,2.26409697 C31.2787297,2.21076364 31.3319165,2.16712727 31.3657626,2.13852121 C31.3851033,2.12349091 31.3996088,2.10894545 31.4189495,2.09973333 L31.4189495,2.09488485 C32.7196088,1.05682424 34.3732352,0.431369697 36.1719165,0.431369697 C40.3930154,0.431369697 43.8163121,3.85973333 43.8163121,8.09197576" id="Fill-6" fill="#A3D3CB" mask="url(#mask-4)"></path>
                </g>
            </g>
        </g>
    </g>
</svg>