<?xml version="1.0" encoding="UTF-8"?>
<svg width="40px" height="40px" viewBox="0 0 40 40" version="1.1" xmlns="http://www.w3.org/2000/svg" xmlns:xlink="http://www.w3.org/1999/xlink">
    <title>Group 19</title>
    <g id="Symbols" stroke="none" stroke-width="1" fill="none" fill-rule="evenodd">
        <g id="CONTENT-/-Join-Our-Team---Large" transform="translate(-741.000000, -99.000000)">
            <g id="Group-19" transform="translate(741.000000, 99.000000)">
                <path d="M25,30 C27.7612932,30 30,32.2387068 30,35.0003163 C30,37.7616095 27.7612932,40 25,40 C22.2387068,40 20,37.7616095 20,35.0003163 C20,32.2387068 22.2387068,30 25,30" id="Fill-1" fill="#BED0D3"></path>
                <path d="M18.4477667,9.20978437 C16.4937667,11.4331594 13.1617667,11.6015969 11.0057667,9.58653437 C8.84976667,7.57112812 8.68643333,4.13500312 10.6404333,1.91197187 C12.5944333,-0.311403125 15.9267667,-0.480184375 18.0824333,1.53522187 C20.2384333,3.55028437 20.4017667,6.98640937 18.4477667,9.20978437" id="Fill-3" fill="#D3E9B2"></path>
                <path d="M39.8745934,25.4557667 C39.8745934,28.3657667 37.5405275,30.7224333 34.6625055,30.7224333 C33.4394286,30.7224333 32.3122857,30.2957667 31.4218462,29.5791 C31.2342637,29.3891 31.0430549,29.2091 30.8485495,29.0424333 C25.6298681,24.5291 19.3364615,28.9194333 18.5320659,29.5157667 C18.5284396,29.5157667 18.5284396,29.5157667 18.5251429,29.5191 C18.4925055,29.5457667 18.4690989,29.5624333 18.4559121,29.5724333 C18.4496484,29.5757667 18.446022,29.5791 18.446022,29.5791 C17.5595385,30.2957667 16.4320659,30.7224333 15.208989,30.7224333 C12.330967,30.7224333 10.0001978,28.3657667 10.0001978,25.4557667 C10.0001978,22.5457667 12.330967,20.1857667 15.208989,20.1857667 C16.4343736,20.1857667 17.5569011,20.6187667 18.446022,21.3347667 L18.446022,21.3324333 C18.4506374,21.3371 18.4549231,21.3411 18.4595385,21.3457667 C18.6751429,21.5201 18.8805275,21.7064333 19.0661319,21.9124333 C19.0694286,21.9157667 19.0723956,21.9194333 19.0723956,21.9194333 C24.387011,26.5291 30.1925055,22.3191 31.2507473,21.4761 C31.3394286,21.4057667 31.3925055,21.3591 31.411956,21.3391 C32.3020659,20.6157667 33.4364615,20.1857667 34.6625055,20.1857667 C37.5405275,20.1857667 39.8745934,22.5457667 39.8745934,25.4557667" id="Fill-6" fill="#F3CDA8"></path>
                <path d="M30,15.0015818 C30,17.763366 27.6561207,20 24.7659983,20 C23.5377791,20 22.4058972,19.5950649 21.5117139,18.9149003 C21.3233428,18.7345777 21.1313301,18.5637457 20.9360068,18.4055679 C15.695384,14.1221133 9.37551728,18.2888326 8.56773966,18.8547928 C8.56409804,18.8547928 8.56409804,18.8547928 8.56078747,18.8579563 C8.52801289,18.8832648 8.50450788,18.8990826 8.49126563,18.9085732 C8.48497556,18.9117368 8.48133394,18.9149003 8.48133394,18.9149003 C7.59112327,19.5950649 6.45891038,20 5.23069114,20 C2.34056875,20 0,17.763366 0,15.0015818 C0,12.2397975 2.34056875,10 5.23069114,10 C6.46122778,10 7.58847482,10.4109459 8.48133394,11.0904777 L8.48133394,11.0882632 C8.48596873,11.0926922 8.49027246,11.0964885 8.49490725,11.1009174 C8.71141814,11.2663714 8.91766627,11.4432142 9.10405103,11.6387219 C9.10736159,11.6418855 9.1103411,11.6453654 9.1103411,11.6453654 C14.4473013,16.0202468 20.2772046,12.0246757 21.3398956,11.2246125 C21.4289498,11.1578614 21.4822499,11.1135717 21.5017822,11.0945903 C22.3956345,10.4080987 23.5347995,10 24.7659983,10 C27.6561207,10 30,12.2397975 30,15.0015818" id="Fill-13" fill="#A3D3CB"></path>
            </g>
        </g>
    </g>
</svg>