<?xml version="1.0" encoding="UTF-8"?>
<svg width="48px" height="32px" viewBox="0 0 48 32" version="1.1" xmlns="http://www.w3.org/2000/svg" xmlns:xlink="http://www.w3.org/1999/xlink">
    <title>Group 12</title>
    <g id="Pages" stroke="none" stroke-width="1" fill="none" fill-rule="evenodd">
        <g id="1.0-Our-Company" transform="translate(-741.000000, -792.000000)">
            <g id="Group-12" transform="translate(741.000000, 792.000000)">
                <path d="M45.7899845,11.8157525 C47.838852,13.6049045 47.9957744,16.6603667 46.1374329,18.6371429 C44.3437624,20.5473033 41.3222932,20.7505118 39.2734257,19.1471505 L39.2734257,19.1731245 C32.5013529,15.5798472 28.4013989,17.9502063 27.2021314,18.8599083 L27.1954741,18.8663254 C26.2967368,19.7069672 25.0683039,20.2212529 23.7165523,20.2233919 C22.5378908,20.2233919 21.4568699,19.8249198 20.6006126,19.1657907 L20.6006126,19.1731245 C20.5809577,19.1544843 20.5616198,19.1392055 20.5419648,19.1205653 C20.3682407,18.9827502 20.1999057,18.8376012 20.0471045,18.6783957 C15.0366836,14.5534148 9.00230454,18.5509702 8.21103528,19.1104813 C8.20659707,19.1150649 8.20215887,19.1150649 8.19993976,19.1211765 C7.33226991,19.8105577 6.22271767,20.2233919 5.01235469,20.2233919 C2.24386334,20.2212529 0.00225080597,18.0605195 3.17014925e-05,15.3919175 C3.17014925e-05,12.7257601 2.24386334,10.5625821 5.00981857,10.5625821 C6.19196722,10.5625821 7.27203707,10.9589152 8.12575827,11.6171276 L8.12575827,11.6128495 C8.13558573,11.6217112 8.14477916,11.6302674 8.15428961,11.6391291 C8.34925379,11.7913063 8.53534155,11.9526509 8.70431051,12.1311077 C13.8085678,16.3813751 19.3969069,12.5332468 20.4325947,11.7466921 C20.4525666,11.7317189 20.4684174,11.7207181 20.4842681,11.7057448 C20.5625708,11.6470741 20.6028317,11.6128495 20.6028317,11.6128495 L20.6028317,11.6165164 C21.458138,10.9567762 22.5397929,10.5625821 23.7187714,10.5625821 C24.9164538,10.5625821 26.0130084,10.9729717 26.874972,11.6504354 L26.874972,11.6431016 C26.8936759,11.6608251 26.9117457,11.6754927 26.9304496,11.6932162 C27.0965654,11.82767 27.257292,11.9685409 27.4040699,12.1225516 C32.4658472,16.4311841 37.6550645,12.924385 38.9618001,11.9022307 C40.8470878,10.1628877 43.8305153,10.1002445 45.7899845,11.8157525" id="Fill-1" fill="#A3C0C0"></path>
                <path d="M38.5686348,26.4468602 C38.5686348,29.1136287 36.341749,31.2765011 33.5941659,31.2786402 C32.4244059,31.2786402 31.3515491,30.8801681 30.5017585,30.221039 L30.5017585,30.2283728 C30.4825666,30.209427 30.4627455,30.1944538 30.4435536,30.1758136 C30.2708268,30.0376929 30.1043925,29.8925439 29.952116,29.733644 C25.0179186,25.6367762 19.0756763,29.5496868 18.2236833,30.1525898 C17.3581616,30.8551108 16.2437748,31.2765011 15.0290241,31.2765011 C12.2836433,31.2765011 10.0567576,29.1136287 10.0567576,26.4468602 C10.0567576,23.7803972 12.2836433,21.6175204 15.0290241,21.6175204 C16.2000426,21.6159969 17.2719555,22.0120244 18.1192292,22.6702368 L18.1192292,22.6656532 C18.1311848,22.6772651 18.1431404,22.686738 18.155096,22.6983499 C18.3454415,22.8489992 18.5279216,23.0082047 18.6930975,23.184217 C23.7610087,27.4366234 29.3049411,23.586356 30.3328071,22.7994958 C30.3529429,22.7845225 30.3683593,22.7735218 30.3837757,22.7585485 C30.4618016,22.7001833 30.5017585,22.6656532 30.5017585,22.6656532 L30.5017585,22.6696257 C31.3509199,22.0098854 32.4266083,21.6175204 33.5963683,21.6175204 C36.341749,21.6175204 38.5686348,23.7803972 38.5686348,26.4468602" id="Fill-4" fill="#F3CDA8"></path>
                <path d="M38.5686348,5.87736412 C38.5664324,8.73342953 36.341749,11.0465416 33.5941659,11.0488312 C32.4244059,11.0488312 31.3515491,10.6223184 30.5017585,9.91713324 L30.5017585,9.92465608 C30.4825666,9.90470418 30.4627455,9.88867725 30.4435536,9.86872535 C30.2708268,9.72088504 30.1043925,9.56552189 29.952116,9.39511304 C24.951219,4.95467051 18.9243437,9.30941799 18.1925358,9.86676287 C18.1881311,9.87166907 18.1837265,9.8762482 18.1790071,9.8762482 C18.1613884,9.89031265 18.1503767,9.90176046 18.1390503,9.90862915 C18.1255216,9.91811448 18.1192292,9.92465608 18.1192292,9.92465608 L18.1192292,9.92400192 C17.2722701,10.6265705 16.1990987,11.0465416 15.0290241,11.0465416 C12.2836433,11.0465416 10.0567576,8.73146705 10.0567576,5.87736412 C10.0567576,3.02326118 12.2836433,0.708186628 15.0290241,0.708186628 C16.194694,0.708186628 17.2694385,1.12684945 18.1192292,1.82974507 C18.310204,2.02860991 18.4996057,2.21144781 18.6930975,2.38480038 C23.9211506,7.08003848 29.6563725,2.54670515 30.4174401,1.9039923 C30.473128,1.85525734 30.5017585,1.83007215 30.5017585,1.83007215 C31.3518638,1.12684945 32.4262937,0.708186628 33.5963683,0.708186628 C36.341749,0.708186628 38.5686348,3.02326118 38.5686348,5.87736412" id="Fill-7" fill="#A3D3CB"></path>
                <path d="M19,3.5 C18.6628289,3.18768415 18.3327851,2.85827932 18,2.5 C18.3563596,2.80053035 18.6902412,3.13347083 19,3.5" id="Fill-10" fill="#0FA47F"></path>
            </g>
        </g>
    </g>
</svg>