<?xml version="1.0" encoding="UTF-8"?>
<svg width="70px" height="62px" viewBox="0 0 70 62" version="1.1" xmlns="http://www.w3.org/2000/svg" xmlns:xlink="http://www.w3.org/1999/xlink">
    <title>Graphic / Blob 1 - full color</title>
    <defs>
        <path d="M29.9138,16.2114521 C32.11559,19.732303 34.933435,21.5057917 38.257165,23.5975162 C42.70295,26.3955747 46.559475,27.4643408 47.70568,27.7613992 C48.931925,28.0790596 51.04298,28.3108596 55.244505,28.8669955 C59.09896,29.3772087 59.23604,29.3206974 60.089915,29.5880615 C61.228875,29.9447389 65.14842,31.1719898 67.258785,34.8479879 C68.785065,37.5062068 68.74079,40.1785823 68.08644,45.4619879 C67.766855,48.042403 67.46521,50.3220766 66.057265,52.9334521 C65.561155,53.8535162 63.057145,58.2816558 57.91377,60.1482558 C56.20878,60.7668879 53.500645,61.7496785 50.653245,60.5111483 C47.99456,59.3547955 46.701385,56.9086955 46.16169,55.8874634 C45.133245,53.9421389 44.907845,52.2160691 44.61494,49.799203 C44.121935,45.7314238 44.83229,45.1561823 44.374705,42.1915823 C43.77958,38.3347709 42.010075,35.622803 41.359405,34.7033143 C39.00593,31.3765125 36.034905,29.8495558 34.106355,28.8582483 C31.70067,27.6219049 29.712435,27.1306823 27.22349,26.5117049 C23.65136,25.6231766 22.24491,25.7309049 18.885645,25.1903068 C13.511235,24.3252577 10.352645,23.816886 7.318255,21.8481974 C6.46277,21.2932125 -0.7245,16.6131313 0.059685,9.93846528 C0.628015,5.10105019 5.22284,1.8230483 8.787725,0.754512453 C14.48172,-0.952221509 19.30367,2.4513483 21.58573,4.06197849 C24.46694,6.09569547 26.142835,8.96188981 26.90632,10.1677332 C28.7638,13.1014879 28.412475,13.8105842 29.9138,16.2114521" id="path-1"></path>
    </defs>
    <g id="Symbols" stroke="none" stroke-width="1" fill="none" fill-rule="evenodd">
        <g id="Button-/-Teaser-CTA" transform="translate(-2.000000, -9.000000)">
            <g id="Group" transform="translate(2.979098, 10.735442)">
                <g id="Graphic-/-Blob-1---full-color" transform="translate(34.500000, 30.500000) rotate(283.000000) translate(-34.500000, -30.500000) ">
                    <g id="ELEMENT-/-BG-/-1" transform="translate(0.000000, -0.287736)">
                        <mask id="mask-2" fill="white">
                            <use xlink:href="#path-1"></use>
                        </mask>
                        <use id="Mask" fill="#E28126" xlink:href="#path-1"></use>
                        <g id="Group" mask="url(#mask-2)" fill="#FCF2E9">
                            <g id="ELEMENT-/-BG-/-1">
                                <rect id="Rectangle-2" x="0" y="0" width="69" height="61.5754717"></rect>
                            </g>
                        </g>
                    </g>
                </g>
            </g>
        </g>
    </g>
</svg>