<?xml version="1.0" encoding="UTF-8"?>
<svg width="48px" height="29px" viewBox="0 0 48 29" version="1.1" xmlns="http://www.w3.org/2000/svg" xmlns:xlink="http://www.w3.org/1999/xlink">
    <title>Group 9</title>
    <g id="Pages" stroke="none" stroke-width="1" fill="none" fill-rule="evenodd">
        <g id="1.0-Our-Company" transform="translate(-168.000000, -1608.000000)">
            <g id="Group-9" transform="translate(168.000000, 1608.000000)">
                <path d="M46.221024,20.111978 C48.289184,21.9775385 48.447584,25.164033 46.571744,27.2259011 C44.761504,29.217978 41.711264,29.4295824 39.643104,27.7577802 L39.643104,27.7845495 C32.807584,24.0371758 28.668704,26.5091868 27.458464,27.4582198 L27.451744,27.4645934 C26.544224,28.3412857 25.304224,28.8776264 23.939744,28.8799259 C22.749984,28.8799259 21.658784,28.4646154 20.794784,27.7772198 L20.794784,27.7845495 C20.774944,27.7651099 20.755104,27.7494945 20.735264,27.7300549 C20.559904,27.586011 20.390304,27.434956 20.235744,27.2686044 C15.178464,22.967044 9.087264,27.1357143 8.288544,27.7192198 C8.283744,27.724 8.279584,27.724 8.277344,27.7306923 C7.401184,28.4493187 6.281184,28.8799259 5.059424,28.8799259 C2.265184,28.8776264 0.002144,26.6242308 0.000224,23.8411868 C0.000224,21.0606923 2.265184,18.8047473 5.057184,18.8047473 C6.250144,18.8047473 7.340384,19.2183956 8.202464,19.9045165 L8.202464,19.9000549 C8.212064,19.9096154 8.221664,19.9182198 8.230944,19.9274615 C8.427744,20.0861648 8.615904,20.2544286 8.786464,20.4408571 C13.938464,24.8730769 19.579424,20.8602418 20.624864,20.0396374 C20.645344,20.024022 20.661024,20.0125495 20.677024,19.9969341 C20.756064,19.9360659 20.797024,19.9000549 20.797024,19.9000549 L20.797024,19.9038791 C21.660064,19.2158462 22.752224,18.8047473 23.941984,18.8047473 C25.150944,18.8047473 26.257824,19.2327363 27.127904,19.9392527 L27.127904,19.9316044 C27.146784,19.9500879 27.165024,19.9653846 27.183904,19.9838681 C27.351584,20.1240879 27.513824,20.2713187 27.661984,20.4319341 C32.771424,24.9253407 38.009504,21.2678352 39.328864,20.2018462 C41.231584,18.3879121 44.243424,18.3225824 46.221024,20.111978" id="Fill-1" fill="#196162"></path>
                <path d="M27.688832,8.41975165 C25.812992,10.4813011 22.614272,10.6374549 20.544512,8.76934505 C18.474752,6.9005978 18.317952,3.71537802 20.193792,1.65446593 C22.069632,-0.406764835 25.268672,-0.563237363 27.338112,1.30519121 C29.407872,3.1733011 29.564672,6.35852088 27.688832,8.41975165" id="Fill-3" fill="#A5CD3C"></path>
                <path d="M39.29696,14.0996725 C39.29472,16.8827165 37.032,19.1361121 34.23744,19.1386615 C33.048,19.1386615 31.9568,18.7231011 31.09216,18.0357055 L31.09216,18.0433538 C31.07264,18.0235956 31.0528,18.0079802 31.03328,17.9885407 C30.8576,17.8444967 30.68832,17.6931231 30.53344,17.5270901 C25.44672,13.2006725 19.3168,17.4435956 18.57248,17.9869473 C18.56832,17.9914088 18.56352,17.9958703 18.55904,17.9958703 C18.54112,18.0095736 18.5296,18.0207275 18.51808,18.0274198 C18.50464,18.0366615 18.49792,18.0433538 18.49792,18.0433538 L18.49792,18.0423978 C17.6368,18.727244 16.54496,19.1361121 15.3552,19.1361121 C12.56288,19.1361121 10.29792,16.8804857 10.29792,14.0996725 C10.2976,11.3188593 12.56256,9.06323297 15.3552,9.06323297 C16.5408,9.06323297 17.6336,9.47146374 18.49792,10.1563099 C18.69248,10.3500681 18.8848,10.528211 19.0816,10.6971121 C24.39904,15.2714637 30.23264,10.8545407 31.0064,10.2286505 C31.06304,10.1808484 31.09216,10.1563099 31.09216,10.1563099 C31.9568,9.47146374 33.04992,9.06323297 34.23968,9.06323297 C37.032,9.06323297 39.29696,11.3188593 39.29696,14.0996725" id="Fill-5" fill="#0FA47F"></path>
                <path d="M19.081632,10.6972077 C18.884832,10.5283066 18.692512,10.3501637 18.497952,10.1564055 C18.705952,10.3186143 18.900832,10.4986692 19.081632,10.6972077" id="Fill-7" fill="#0FA47F"></path>
            </g>
        </g>
    </g>
</svg>