<?xml version="1.0" encoding="UTF-8"?>
<svg width="59px" height="59px" viewBox="0 0 59 59" version="1.1" xmlns="http://www.w3.org/2000/svg" xmlns:xlink="http://www.w3.org/1999/xlink">
    <title>Group 19</title>
    <defs>
        <polygon id="path-1" points="0.40069665 0.1855 15.7275943 0.1855 15.7275943 15.9914816 0.40069665 15.9914816"></polygon>
    </defs>
    <g id="Pages" stroke="none" stroke-width="1" fill="none" fill-rule="evenodd">
        <g id="Careers" transform="translate(-739.000000, -822.000000)">
            <g id="Group-19" transform="translate(739.000000, 822.000000)">
                <path d="M36.5,43.3902439 C40.6419398,43.3902439 44,46.7483041 44,50.8907184 C44,55.0326582 40.6419398,58.3902439 36.5,58.3902439 C32.3580602,58.3902439 29,55.0326582 29,50.8907184 C29,46.7483041 32.3580602,43.3902439 36.5,43.3902439" id="Fill-1" fill="#BED0D3"></path>
                <g id="Group-5" transform="translate(13.000000, 0.390244)">
                    <mask id="mask-2" fill="white">
                        <use xlink:href="#path-1"></use>
                    </mask>
                    <g id="Clip-4"></g>
                    <path d="M13.7422061,13.39605 C10.9000242,16.63005 6.05347879,16.87505 2.91747879,13.94405 C-0.218521212,11.01255 -0.45609697,6.01455 2.38608485,2.78105 C5.22826667,-0.45295 10.075297,-0.69845 13.2108121,2.23305 C16.3468121,5.16405 16.5843879,10.16205 13.7422061,13.39605" id="Fill-3" fill="#D3E9B2" mask="url(#mask-2)"></path>
                </g>
                <g id="Group-12" transform="translate(15.000000, 30.390244)">
                    <path d="M43.8160703,7.93566061 C43.8160703,12.1683879 40.3927736,15.5962667 36.1716747,15.5962667 C34.3778286,15.5962667 32.7246857,14.9756606 31.4187077,13.9332364 C31.1435868,13.6568727 30.8631473,13.3950545 30.5778725,13.1526303 C22.9238066,6.58778182 13.6934769,12.9737212 12.5136967,13.8411152 C12.508378,13.8411152 12.508378,13.8411152 12.5035429,13.8459636 C12.4556747,13.8847515 12.4213451,13.9089939 12.4020044,13.9235394 C12.3928176,13.9283879 12.3874989,13.9332364 12.3874989,13.9332364 C11.0873231,14.9756606 9.4336967,15.5962667 7.63985055,15.5962667 C3.41875165,15.5962667 0.00029010989,12.1683879 0.00029010989,7.93566061 C0.00029010989,3.70293333 3.41875165,0.270206061 7.63985055,0.270206061 C9.43708132,0.270206061 11.0834549,0.900024242 12.3874989,1.94147879 L12.3874989,1.93808485 C12.3942681,1.94487273 12.4005538,1.95069091 12.4073231,1.95747879 C12.7235429,2.21105455 13.0247736,2.48208485 13.2969934,2.78172121 C13.3018286,2.7865697 13.3061802,2.79190303 13.3061802,2.79190303 C21.1009495,9.49687273 29.6156747,3.37323636 31.1677626,2.14705455 C31.2978286,2.04475152 31.3756747,1.97687273 31.4042022,1.94778182 C32.7096967,0.895660606 34.3734769,0.270206061 36.1716747,0.270206061 C40.3927736,0.270206061 43.8160703,3.70293333 43.8160703,7.93566061" id="Fill-6" fill="#F3CDA8"></path>
                    <path d="M31.4189011,13.9332848 C31.1191209,13.6957091 30.8386813,13.4382545 30.5780659,13.1526788 C30.8633407,13.395103 31.1437802,13.6569212 31.4189011,13.9332848" id="Fill-8" fill="#F69220"></path>
                    <path d="M31.4042505,1.94797576 C31.3752396,1.97706667 31.2978769,2.04446061 31.167811,2.14676364 C31.2446901,2.07403636 31.3220527,2.00567273 31.4042505,1.94797576" id="Fill-10" fill="#F69220"></path>
                </g>
                <path d="M44,21.8926166 C44,26.0352929 40.5623103,29.3902439 36.3234642,29.3902439 C34.5220759,29.3902439 32.8619826,28.7828412 31.5505137,27.7625944 C31.2742361,27.4921104 30.9926174,27.2358624 30.7061433,26.9985957 C23.0198965,20.5734138 13.7507587,26.8234929 12.5660182,27.6724331 C12.5606771,27.6724331 12.5606771,27.6724331 12.5558216,27.6771784 C12.5077522,27.7151411 12.4732782,27.7388678 12.4538563,27.7531038 C12.4446308,27.7578491 12.4392898,27.7625944 12.4392898,27.7625944 C11.1336475,28.7828412 9.47306856,29.3902439 7.67168033,29.3902439 C3.43283417,29.3902439 0,26.0352929 0,21.8926166 C0,17.7499402 3.43283417,14.3902439 7.67168033,14.3902439 C9.47646741,14.3902439 11.1297631,15.0066628 12.4392898,16.0259604 L12.4392898,16.0226387 C12.4460875,16.0292822 12.4523996,16.0349766 12.4591973,16.04162 C12.7767466,16.289801 13.0792439,16.5550652 13.3526082,16.8483268 C13.3574637,16.8530721 13.3618336,16.858292 13.3618336,16.858292 C21.1893753,23.420614 29.7399,17.4272575 31.2985136,16.2271626 C31.4291263,16.1270361 31.5072998,16.0606014 31.5359472,16.0321294 C32.8469306,15.002392 34.517706,14.3902439 36.3234642,14.3902439 C40.5623103,14.3902439 44,17.7499402 44,21.8926166" id="Fill-13" fill="#A3D3CB"></path>
                <path d="M32,28.3902439 C31.6434733,28.0858961 31.3099482,27.7560824 31,27.3902439 C31.3392754,27.7008029 31.6728005,28.0362066 32,28.3902439" id="Fill-15" fill="#0FA47F"></path>
                <path d="M32.119219,16.2902852 C32.0899628,16.3195414 32.0119463,16.3873183 31.880781,16.4902026 C31.9583099,16.4170621 32.0363264,16.34831 32.119219,16.2902852" id="Fill-17" fill="#0FA47F"></path>
            </g>
        </g>
    </g>
</svg>