<?xml version="1.0" encoding="UTF-8"?>
<svg width="64px" height="54px" viewBox="0 0 64 54" version="1.1" xmlns="http://www.w3.org/2000/svg" xmlns:xlink="http://www.w3.org/1999/xlink">
    <title>Group 15</title>
    <defs>
        <polygon id="path-1" points="1.61560355e-05 0.306284317 63.8254118 0.306284317 63.8254118 41.545643 1.61560355e-05 41.545643"></polygon>
    </defs>
    <g id="Pages" stroke="none" stroke-width="1" fill="none" fill-rule="evenodd">
        <g id="Careers" transform="translate(-739.000000, -1097.000000)">
            <g id="Group-15" transform="translate(739.000000, 1097.000000)">
                <g id="Group-3" transform="translate(0.000000, 5.390244)">
                    <mask id="mask-2" fill="white">
                        <use xlink:href="#path-1"></use>
                    </mask>
                    <g id="Clip-2"></g>
                    <path d="M58.8791059,41.1099775 C55.1421647,42.4468989 51.0485176,40.6050337 49.5327529,36.9788764 L49.5129882,37.0161573 C43.2414588,27.3151011 36.1181647,27.704427 33.9167529,28.1055506 C33.9125176,28.103191 33.9068706,28.1050787 33.9068706,28.1050787 C33.5275765,28.1749213 33.2984,28.2442921 33.2471059,28.2598652 C33.2409882,28.2612809 33.2344,28.2636404 33.2344,28.2636404 C31.6362824,28.5552809 29.9379294,28.3273483 28.3948706,27.4977303 C26.8518118,26.6681124 25.7205176,25.3694157 25.0809882,23.8791236 L25.0833412,23.8753483 C25.0767529,23.8668539 25.0748706,23.8602472 25.0729882,23.8541124 C24.9689882,23.5086742 24.8546353,23.1740899 24.7289882,22.8498876 C21.1859294,13.6570787 10.3233412,14.8788539 8.90687059,15.0813034 C8.90310588,15.0789438 8.90310588,15.0789438 8.89651765,15.0813034 C8.83722353,15.0916854 8.79675294,15.0968764 8.77369412,15.1006517 C8.76334118,15.1006517 8.75675294,15.1025393 8.75675294,15.1025393 C7.15910588,15.3941798 5.45981176,15.1662472 3.92145882,14.3385169 C0.304988235,12.3942472 -1.05689412,7.87098876 0.884282353,4.24011236 C2.82592941,0.609707865 7.33416471,-0.752224719 10.9501647,1.19251685 C12.4894588,2.01977528 13.6188706,3.31233708 14.2607529,4.80876404 C14.3798118,5.20469663 14.5106353,5.58033708 14.6471059,5.94276404 C14.6494588,5.94937079 14.6536941,5.95173034 14.6513412,5.95597753 C18.2960471,15.4069213 28.5821647,13.9553258 30.3327529,13.6377303 C30.4108706,13.6212135 30.4767529,13.6084719 30.5186353,13.5985618 C30.5421647,13.5952584 30.5609882,13.5895955 30.5821647,13.5900674 L30.5845176,13.5858202 C32.1760471,13.2960674 33.8814588,13.5216404 35.4240471,14.3517303 C36.9915765,15.1945618 38.1351059,16.5211011 38.7718118,18.0472584 C38.7774588,18.0552809 38.7798118,18.0618876 38.7835765,18.0746292 C38.7854588,18.081236 38.7896941,18.0944494 38.7934588,18.0958652 C38.8856941,18.4134607 38.9906353,18.716427 39.0960471,19.0085393 C42.5628706,28.5028989 51.9511059,27.3717303 54.4009882,26.8951011 C58.1233412,25.8550112 62.0706353,27.8700674 63.3925176,31.5797528 C64.7708706,35.463573 62.7520471,39.7277528 58.8791059,41.1099775" id="Fill-1" fill="#A3C0C0" mask="url(#mask-2)"></path>
                </g>
                <path d="M40.0569813,12.9268763 C37.2754535,15.9959958 32.5323366,16.2289794 29.4632609,13.4474118 C26.3941853,10.6648953 26.161205,5.92218507 28.9432073,2.85354003 C31.724735,-0.215579506 36.4683265,-0.44856307 39.5369277,2.33347896 C42.6060033,5.11504649 42.8385091,9.85775672 40.0569813,12.9268763" id="Fill-4" fill="#D3E9B2"></path>
                <g id="Group-14" transform="translate(4.000000, 25.390244)">
                    <path d="M15.1038118,5.80771333 C14.9664,5.44884667 14.8360471,5.07784667 14.7169882,4.68631333 C14.8812235,5.04331333 15.0073412,5.42318 15.1038118,5.80771333" id="Fill-6" fill="#F69220"></path>
                    <path d="M38.9236706,24.1070667 C36.9824941,27.6976 32.4719059,29.0481333 28.8512,27.1231333 C27.3081412,26.3027333 26.1768471,25.018 25.5396706,23.5405333 C25.4295529,23.1807333 25.3090824,22.8307333 25.1754353,22.4947333 C21.6408471,13.4880667 10.9024941,14.6248667 9.3952,14.8348667 C7.74955294,15.1722667 5.97449412,14.959 4.37778824,14.1101333 C0.757082353,12.1851333 -0.600564706,7.71446667 1.34061176,4.12393333 C3.28225882,0.5334 7.78625882,-0.815266667 11.4064941,1.1102 C12.9457882,1.92826667 14.0752,3.20646667 14.7170824,4.68626667 C14.8356706,5.0778 14.9664941,5.44926667 15.1039059,5.80766667 C15.1053176,5.8142 15.1100235,5.81653333 15.1076706,5.82026667 C18.7528471,15.1666667 29.0384941,13.7307333 30.7890824,13.4171333 C30.8672,13.4008 30.9330824,13.3877333 30.9749647,13.3784 C30.9980235,13.3751333 31.0173176,13.3690667 31.0384941,13.3695333 L31.0408471,13.3653333 C32.6323765,13.0788 34.3373176,13.3023333 35.8803765,14.1227333 C39.5010824,16.0477333 40.8648471,20.517 38.9236706,24.1070667" id="Fill-8" fill="#F3CDA8"></path>
                    <path d="M25.5394824,23.54058 C25.3870118,23.20038 25.2665412,22.85038 25.1757176,22.49478 C25.3093647,22.83078 25.4298353,23.18078 25.5394824,23.54058" id="Fill-10" fill="#F69220"></path>
                    <path d="M31.0408471,13.36552 L31.0384941,13.36972 C31.0173176,13.3692533 30.9980235,13.37532 30.9749647,13.37812 C31.0173176,13.3692533 31.0408471,13.36552 31.0408471,13.36552" id="Fill-12" fill="#F69220"></path>
                </g>
            </g>
        </g>
    </g>
</svg>